<svg id="svg" version="1.1" xmlns="http://www.w3.org/2000/svg" xmlns:xlink="http://www.w3.org/1999/xlink" width="400" height="400" viewBox="0, 0, 400,400"><g id="svgg"><path id="path0" d="M162.000 119.800 C 162.000 120.350,161.820 120.800,161.600 120.800 C 161.380 120.800,161.200 121.340,161.200 122.000 C 161.200 122.660,161.020 123.200,160.800 123.200 C 160.580 123.200,160.400 123.560,160.400 124.000 C 160.400 124.440,160.220 124.800,160.000 124.800 C 159.780 124.800,159.600 125.074,159.600 125.408 C 159.600 125.742,159.150 126.729,158.600 127.600 C 158.050 128.471,157.600 129.328,157.600 129.504 C 157.600 129.680,157.240 130.083,156.800 130.400 C 156.360 130.717,156.000 131.231,156.000 131.542 C 156.000 132.126,144.667 143.600,144.091 143.600 C 143.913 143.600,143.099 144.230,142.282 145.000 C 141.466 145.770,140.601 146.400,140.360 146.400 C 140.118 146.400,139.417 146.940,138.800 147.600 C 138.183 148.260,137.480 148.800,137.236 148.800 C 136.992 148.800,136.228 149.340,135.537 150.000 C 134.846 150.660,134.078 151.200,133.829 151.200 C 133.580 151.200,133.117 151.560,132.800 152.000 C 132.483 152.440,132.020 152.800,131.771 152.800 C 131.522 152.800,130.754 153.340,130.063 154.000 C 129.372 154.660,128.671 155.200,128.504 155.200 C 128.337 155.201,127.716 155.618,127.124 156.127 C 126.532 156.636,125.567 157.401,124.979 157.826 C 124.392 158.252,123.668 158.831,123.370 159.114 C 123.072 159.397,122.716 159.604,122.579 159.573 C 122.441 159.543,121.940 159.851,121.464 160.259 C 120.989 160.667,120.116 161.311,119.526 161.692 C 118.935 162.073,117.998 162.838,117.444 163.392 C 116.890 163.946,116.266 164.400,116.059 164.400 C 115.851 164.400,114.762 165.300,113.639 166.400 C 112.515 167.500,111.406 168.400,111.174 168.400 C 110.943 168.400,110.864 168.580,111.000 168.800 C 111.136 169.020,111.054 169.200,110.818 169.200 C 110.582 169.200,108.882 170.685,107.041 172.500 C 105.200 174.315,102.809 176.610,101.727 177.600 C 100.644 178.590,99.138 180.202,98.379 181.182 C 97.621 182.161,96.415 183.562,95.700 184.295 C 94.985 185.027,94.400 185.776,94.400 185.959 C 94.400 186.142,93.863 186.901,93.206 187.646 C 92.550 188.391,92.010 189.249,92.006 189.553 C 92.003 189.857,91.684 190.397,91.297 190.753 C 90.911 191.109,90.340 191.895,90.030 192.500 C 89.719 193.105,89.315 193.600,89.132 193.600 C 88.950 193.600,88.800 193.870,88.800 194.200 C 88.800 194.530,88.620 194.800,88.400 194.800 C 88.180 194.800,88.000 195.078,88.000 195.417 C 88.000 195.756,87.640 196.420,87.200 196.892 C 86.760 197.364,86.400 197.987,86.400 198.275 C 86.400 198.564,86.220 198.800,86.000 198.800 C 85.780 198.800,85.600 199.160,85.600 199.600 C 85.600 200.040,85.420 200.400,85.200 200.400 C 84.980 200.400,84.800 200.760,84.800 201.200 C 84.800 201.640,84.620 202.000,84.400 202.000 C 84.180 202.000,84.000 202.360,84.000 202.800 C 84.000 203.240,83.820 203.600,83.600 203.600 C 83.380 203.600,83.200 203.960,83.200 204.400 C 83.200 204.840,83.020 205.200,82.800 205.200 C 82.580 205.200,82.400 205.560,82.400 206.000 C 82.400 206.440,82.220 206.800,82.000 206.800 C 81.780 206.800,81.600 207.160,81.600 207.600 C 81.600 208.040,81.420 208.400,81.200 208.400 C 80.980 208.400,80.800 208.755,80.800 209.188 C 80.800 209.621,80.440 210.617,80.000 211.400 C 79.560 212.183,79.200 213.168,79.200 213.589 C 79.200 214.009,79.020 214.464,78.800 214.600 C 78.580 214.736,78.400 215.287,78.400 215.824 C 78.400 216.361,78.220 216.800,78.000 216.800 C 77.780 216.800,77.600 217.340,77.600 218.000 C 77.600 218.660,77.420 219.200,77.200 219.200 C 76.980 219.200,76.800 219.652,76.800 220.205 C 76.800 220.758,76.632 221.523,76.427 221.905 C 75.925 222.840,74.800 227.718,74.800 228.959 C 74.800 229.505,74.620 230.064,74.400 230.200 C 74.180 230.336,74.000 231.247,74.000 232.224 C 74.000 233.201,73.820 234.000,73.600 234.000 C 73.378 234.000,73.200 235.067,73.200 236.400 C 73.200 237.733,73.022 238.800,72.800 238.800 C 72.574 238.800,72.400 239.933,72.400 241.400 C 72.400 242.867,72.226 244.000,72.000 244.000 C 71.763 244.000,71.600 245.467,71.600 247.600 C 71.600 249.733,71.437 251.200,71.200 251.200 C 70.967 251.200,70.800 252.512,70.800 254.336 L 70.800 257.472 80.351 257.725 C 97.275 258.172,107.215 256.631,119.800 251.607 C 144.410 241.783,168.745 218.583,181.065 193.200 C 183.432 188.322,184.400 186.084,184.400 185.484 C 184.400 185.196,184.543 184.789,184.718 184.580 C 185.982 183.072,188.583 170.670,188.321 167.400 C 188.286 166.960,188.289 165.835,188.329 164.900 L 188.400 163.200 199.956 163.200 L 211.512 163.200 211.741 167.500 C 211.867 169.865,212.149 172.790,212.367 174.000 C 212.585 175.210,212.874 176.830,213.009 177.600 C 213.144 178.370,213.399 179.360,213.575 179.800 C 213.751 180.240,214.288 181.860,214.768 183.400 C 215.248 184.940,215.836 186.650,216.074 187.200 C 216.312 187.750,216.634 188.560,216.789 189.000 C 218.589 194.101,227.299 208.997,230.003 211.600 C 230.117 211.710,231.012 212.790,231.990 214.000 C 234.736 217.396,240.638 223.377,244.400 226.574 C 248.645 230.182,256.449 236.000,257.046 236.000 C 257.161 236.000,258.008 236.518,258.928 237.150 C 263.048 239.984,272.409 244.757,278.600 247.180 C 280.151 247.787,281.411 248.298,282.400 248.720 C 282.950 248.955,284.570 249.528,286.000 249.993 C 287.430 250.457,288.913 251.009,289.295 251.219 C 289.677 251.429,290.354 251.600,290.800 251.600 C 291.246 251.600,291.923 251.762,292.305 251.961 C 292.687 252.160,293.810 252.538,294.800 252.803 C 295.790 253.067,297.013 253.445,297.519 253.642 C 298.024 253.839,298.869 254.000,299.395 254.000 C 299.922 254.000,300.452 254.161,300.574 254.358 C 300.695 254.555,301.471 254.815,302.297 254.937 C 303.774 255.156,305.838 255.553,309.800 256.382 C 315.254 257.523,316.574 257.693,321.361 257.872 C 324.200 257.979,327.125 257.953,327.861 257.815 L 329.200 257.564 329.200 254.405 C 329.200 251.301,328.723 249.943,328.251 251.704 C 328.119 252.197,328.008 253.725,328.005 255.100 L 328.000 257.600 322.624 257.600 C 319.471 257.600,317.145 257.435,317.000 257.200 C 316.864 256.980,315.784 256.800,314.600 256.800 C 313.416 256.800,312.336 256.620,312.200 256.400 C 312.064 256.180,311.164 256.000,310.200 256.000 C 309.236 256.000,308.336 255.820,308.200 255.600 C 308.064 255.380,307.254 255.200,306.400 255.200 C 305.546 255.200,304.748 255.039,304.626 254.842 C 304.505 254.645,303.729 254.382,302.903 254.258 C 299.393 253.728,298.380 253.492,298.173 253.156 C 298.052 252.960,297.571 252.800,297.105 252.800 C 296.333 252.800,294.702 252.365,292.600 251.597 C 292.160 251.436,290.540 250.912,289.000 250.432 C 287.460 249.952,285.840 249.397,285.400 249.200 C 284.960 249.002,283.790 248.575,282.800 248.250 C 281.075 247.685,279.432 247.034,276.400 245.714 C 275.630 245.379,274.370 244.837,273.600 244.510 C 270.620 243.242,267.794 241.816,267.667 241.515 C 267.593 241.342,267.188 241.200,266.767 241.200 C 266.345 241.200,265.999 241.065,265.997 240.900 C 265.995 240.735,265.590 240.402,265.097 240.160 C 262.592 238.930,260.521 237.728,259.825 237.100 C 259.398 236.715,258.813 236.400,258.525 236.400 C 258.236 236.400,258.000 236.220,258.000 236.000 C 258.000 235.780,257.801 235.600,257.559 235.600 C 257.118 235.600,248.299 229.272,246.400 227.593 C 245.850 227.107,244.774 226.235,244.009 225.655 C 241.058 223.416,234.362 216.302,230.404 211.200 C 229.636 210.210,228.691 209.051,228.304 208.625 C 227.917 208.198,227.600 207.628,227.600 207.358 C 227.600 207.088,227.455 206.807,227.277 206.733 C 226.119 206.256,219.179 193.765,217.147 188.500 C 216.956 188.005,216.632 187.195,216.426 186.700 C 216.221 186.205,215.836 185.080,215.571 184.200 C 215.306 183.320,214.959 182.240,214.800 181.800 C 213.991 179.563,213.600 178.047,213.600 177.152 C 213.600 176.606,213.435 175.989,213.234 175.780 C 212.858 175.390,212.562 172.661,212.276 166.954 C 212.056 162.549,212.449 162.800,205.776 162.800 L 200.000 162.800 200.000 151.800 L 200.000 140.800 203.376 140.800 C 205.233 140.800,206.864 140.620,207.000 140.400 C 207.136 140.180,207.856 140.000,208.600 140.000 C 209.344 140.000,210.064 139.820,210.200 139.600 C 210.336 139.380,210.876 139.200,211.400 139.200 C 211.924 139.200,212.476 139.001,212.626 138.757 C 212.804 138.470,212.637 138.393,212.150 138.540 C 194.164 143.957,180.721 138.854,164.068 120.286 C 162.506 118.544,162.000 118.426,162.000 119.800 M235.718 120.500 C 230.056 127.264,222.239 133.757,216.000 136.879 C 214.350 137.704,213.229 138.384,213.510 138.390 C 216.193 138.443,224.978 132.298,231.260 125.975 C 236.617 120.582,237.600 119.966,237.600 122.000 C 237.600 122.352,237.816 122.856,238.080 123.120 C 238.344 123.384,238.437 123.600,238.286 123.600 C 238.014 123.600,241.140 130.019,241.598 130.400 C 241.730 130.510,242.277 131.230,242.812 132.000 C 245.433 135.769,251.392 141.737,255.800 145.008 C 256.680 145.661,257.490 146.295,257.600 146.417 C 257.710 146.539,258.430 147.071,259.200 147.600 C 259.970 148.129,260.690 148.669,260.800 148.800 C 260.910 148.931,261.630 149.471,262.400 150.000 C 263.170 150.529,263.890 151.069,264.000 151.200 C 264.110 151.331,264.830 151.871,265.600 152.400 C 266.370 152.929,267.090 153.469,267.200 153.600 C 267.310 153.731,268.030 154.271,268.800 154.800 C 269.570 155.329,270.290 155.873,270.400 156.010 C 270.510 156.147,270.870 156.380,271.200 156.529 C 271.530 156.678,272.610 157.428,273.600 158.196 C 274.590 158.964,275.850 159.908,276.400 160.293 C 286.729 167.521,298.915 179.115,305.162 187.656 C 306.025 188.835,307.106 190.278,307.565 190.863 C 308.024 191.448,308.400 192.095,308.400 192.301 C 308.400 192.507,308.760 193.002,309.200 193.400 C 309.640 193.798,310.000 194.289,310.000 194.490 C 310.000 194.691,310.540 195.641,311.200 196.600 C 311.860 197.559,312.400 198.537,312.400 198.772 C 312.400 199.007,312.580 199.200,312.800 199.200 C 313.020 199.200,313.200 199.545,313.200 199.967 C 313.200 200.388,313.337 200.793,313.504 200.867 C 313.912 201.046,317.207 207.667,317.203 208.300 C 317.201 208.575,317.380 208.800,317.600 208.800 C 317.820 208.800,318.000 209.072,318.000 209.405 C 318.000 209.738,318.159 210.323,318.353 210.705 C 318.548 211.087,318.929 211.940,319.200 212.600 C 319.471 213.260,319.852 214.113,320.047 214.495 C 320.241 214.877,320.400 215.552,320.400 215.995 C 320.400 216.438,320.541 216.800,320.713 216.800 C 320.885 216.800,321.065 217.281,321.114 217.868 C 321.218 219.132,321.398 219.372,321.973 219.016 C 322.513 218.683,322.532 216.929,322.000 216.600 C 321.780 216.464,321.600 215.913,321.600 215.376 C 321.600 214.839,321.420 214.400,321.200 214.400 C 320.980 214.400,320.800 213.961,320.800 213.424 C 320.800 212.887,320.620 212.336,320.400 212.200 C 320.180 212.064,320.000 211.603,320.000 211.176 C 320.000 210.749,319.820 210.400,319.600 210.400 C 319.380 210.400,319.200 209.950,319.200 209.400 C 319.200 208.850,319.020 208.400,318.800 208.400 C 318.580 208.400,318.400 208.040,318.400 207.600 C 318.400 207.160,318.220 206.800,318.000 206.800 C 317.780 206.800,317.600 206.440,317.600 206.000 C 317.600 205.560,317.420 205.200,317.200 205.200 C 316.980 205.200,316.800 204.840,316.800 204.400 C 316.800 203.960,316.620 203.600,316.400 203.600 C 316.180 203.600,316.000 203.240,316.000 202.800 C 316.000 202.360,315.820 202.000,315.600 202.000 C 315.380 202.000,315.200 201.640,315.200 201.200 C 315.200 200.760,315.020 200.400,314.800 200.400 C 314.580 200.400,314.400 200.040,314.400 199.600 C 314.400 199.160,314.220 198.800,314.000 198.800 C 313.780 198.800,313.600 198.480,313.600 198.088 C 313.600 197.697,313.240 197.117,312.800 196.800 C 312.360 196.483,312.000 195.903,312.000 195.512 C 312.000 195.120,311.820 194.800,311.600 194.800 C 311.380 194.800,311.200 194.564,311.200 194.275 C 311.200 193.987,310.840 193.364,310.400 192.892 C 309.960 192.420,309.600 191.886,309.600 191.705 C 309.600 191.524,309.240 191.117,308.800 190.800 C 308.360 190.483,308.000 189.946,308.000 189.608 C 308.000 189.269,307.550 188.507,307.000 187.913 C 306.450 187.320,306.000 186.669,306.000 186.466 C 306.000 186.263,305.280 185.355,304.400 184.448 C 303.520 183.541,302.800 182.632,302.800 182.427 C 302.800 182.222,301.367 180.647,299.616 178.927 C 297.865 177.207,294.560 173.955,292.272 171.700 C 289.984 169.445,287.997 167.600,287.856 167.600 C 287.716 167.600,286.859 166.880,285.952 166.000 C 285.045 165.120,284.139 164.400,283.938 164.400 C 283.738 164.400,282.943 163.770,282.173 163.000 C 281.403 162.230,280.608 161.600,280.405 161.600 C 280.202 161.600,279.605 161.168,279.077 160.641 C 278.550 160.113,277.506 159.367,276.759 158.982 C 276.012 158.597,275.109 157.948,274.753 157.541 C 274.397 157.133,273.942 156.800,273.741 156.800 C 273.541 156.800,273.117 156.440,272.800 156.000 C 272.483 155.560,272.020 155.200,271.771 155.200 C 271.522 155.200,270.754 154.660,270.063 154.000 C 269.372 153.340,268.624 152.800,268.400 152.800 C 268.176 152.800,267.428 152.260,266.737 151.600 C 266.046 150.940,265.278 150.400,265.029 150.400 C 264.780 150.400,264.317 150.040,264.000 149.600 C 263.683 149.160,263.228 148.800,262.990 148.800 C 262.751 148.800,261.869 148.170,261.028 147.400 C 260.187 146.630,259.350 146.000,259.168 146.000 C 258.986 146.000,258.423 145.591,257.918 145.090 C 257.413 144.590,256.282 143.645,255.403 142.990 C 253.176 141.330,244.000 132.054,244.000 131.463 C 244.000 131.195,243.640 130.717,243.200 130.400 C 242.760 130.083,242.400 129.493,242.400 129.088 C 242.400 128.684,242.255 128.442,242.078 128.552 C 241.902 128.661,241.412 127.861,240.990 126.775 C 240.569 125.689,240.084 124.800,239.912 124.800 C 239.740 124.800,239.600 124.440,239.600 124.000 C 239.600 123.560,239.420 123.200,239.200 123.200 C 238.980 123.200,238.800 122.660,238.800 122.000 C 238.800 121.340,238.620 120.800,238.400 120.800 C 238.180 120.800,238.000 120.440,238.000 120.000 C 238.000 118.802,236.946 119.033,235.718 120.500 M197.358 212.280 C 193.711 218.436,184.296 231.868,182.416 233.600 C 182.296 233.710,180.639 235.600,178.734 237.800 C 171.318 246.361,160.600 255.900,152.000 261.591 C 147.574 264.521,147.200 264.995,147.200 267.675 C 147.200 268.958,147.021 270.000,146.800 270.000 C 146.580 270.000,146.400 270.889,146.400 271.976 C 146.400 273.063,146.220 274.064,146.000 274.200 C 145.780 274.336,145.600 275.056,145.600 275.800 C 145.600 276.544,145.420 277.264,145.200 277.400 C 144.980 277.536,144.800 278.006,144.800 278.445 C 144.800 278.884,144.170 281.126,143.400 283.428 C 142.630 285.729,142.000 287.879,142.000 288.206 C 142.000 288.533,141.820 288.800,141.600 288.800 C 141.380 288.800,141.200 289.143,141.200 289.562 C 141.200 290.378,139.599 293.712,139.100 293.933 C 138.935 294.007,138.800 294.397,138.800 294.800 C 138.800 295.203,138.665 295.593,138.500 295.667 C 138.124 295.834,136.825 297.964,136.529 298.900 C 136.407 299.285,136.148 299.600,135.953 299.600 C 135.759 299.600,135.600 299.920,135.600 300.312 C 135.600 300.703,135.240 301.283,134.800 301.600 C 134.360 301.917,134.000 302.409,134.000 302.692 C 134.000 302.975,133.460 303.772,132.800 304.463 C 132.140 305.154,131.600 305.896,131.600 306.112 C 131.600 306.329,131.285 306.797,130.900 307.153 C 130.515 307.509,129.366 308.790,128.347 310.000 C 127.328 311.210,125.908 312.810,125.190 313.556 L 123.887 314.911 124.843 315.647 C 125.370 316.051,126.027 316.386,126.305 316.391 C 126.583 316.396,127.123 316.559,127.505 316.753 C 128.142 317.077,128.660 317.297,131.300 318.364 C 136.588 320.500,147.308 325.740,151.141 328.061 C 152.538 328.907,153.748 329.600,153.829 329.600 C 154.571 329.600,167.174 338.256,172.400 342.356 C 179.786 348.150,191.296 359.086,197.706 366.400 L 199.984 369.000 202.664 366.000 C 210.327 357.422,221.494 347.055,229.600 340.994 C 231.250 339.760,232.870 338.533,233.200 338.266 C 233.880 337.717,240.610 333.211,241.662 332.600 C 242.041 332.380,244.387 331.004,246.876 329.543 C 252.403 326.296,265.673 319.600,266.579 319.600 C 266.705 319.600,267.662 319.222,268.704 318.760 C 269.747 318.298,271.050 317.737,271.600 317.513 C 272.150 317.290,272.913 316.948,273.295 316.753 C 273.677 316.559,274.332 316.400,274.752 316.400 C 275.171 316.400,275.618 316.130,275.745 315.800 C 276.010 315.108,275.858 315.063,274.895 315.553 C 274.245 315.884,273.447 316.221,271.000 317.200 C 270.450 317.420,269.550 317.780,269.000 318.000 C 268.450 318.220,267.595 318.556,267.100 318.747 C 266.605 318.938,265.050 319.658,263.644 320.347 C 262.238 321.036,260.843 321.600,260.544 321.600 C 260.245 321.600,260.000 321.780,260.000 322.000 C 260.000 322.220,259.640 322.400,259.200 322.400 C 258.760 322.400,258.400 322.580,258.400 322.800 C 258.400 323.020,258.040 323.200,257.600 323.200 C 257.160 323.200,256.800 323.380,256.800 323.600 C 256.800 323.820,256.440 324.000,256.000 324.000 C 255.560 324.000,255.200 324.180,255.200 324.400 C 255.200 324.620,254.855 324.800,254.433 324.800 C 254.012 324.800,253.607 324.940,253.533 325.111 C 253.460 325.282,252.500 325.869,251.400 326.416 C 250.300 326.964,247.448 328.579,245.063 330.006 C 242.677 331.433,240.157 332.935,239.463 333.345 C 238.768 333.755,238.110 334.218,238.000 334.374 C 237.890 334.531,237.530 334.758,237.200 334.879 C 236.650 335.082,228.460 341.070,228.000 341.605 C 227.890 341.734,227.170 342.271,226.400 342.800 C 225.630 343.329,224.730 344.046,224.400 344.392 C 224.070 344.739,222.990 345.643,222.000 346.401 C 218.247 349.276,205.490 361.759,202.193 365.783 C 201.374 366.782,200.545 367.600,200.352 367.600 C 200.151 367.600,200.000 333.766,200.000 288.551 C 200.000 218.331,200.067 209.558,200.600 210.000 C 200.930 210.274,201.200 210.668,201.200 210.877 C 201.200 211.085,201.701 212.008,202.312 212.928 C 202.924 213.848,203.674 215.095,203.980 215.700 C 204.285 216.305,204.685 216.800,204.868 216.800 C 205.050 216.800,205.200 217.070,205.200 217.400 C 205.200 217.730,205.380 218.000,205.600 218.000 C 205.820 218.000,206.000 218.236,206.000 218.525 C 206.000 218.813,206.360 219.436,206.800 219.908 C 207.240 220.380,207.600 220.909,207.601 221.083 C 207.601 221.257,208.141 222.030,208.800 222.800 C 209.459 223.570,209.999 224.425,209.999 224.700 C 210.000 224.975,210.141 225.200,210.314 225.200 C 210.486 225.200,210.943 225.733,211.328 226.385 C 211.713 227.037,212.253 227.802,212.529 228.085 C 212.804 228.368,213.556 229.320,214.201 230.200 C 219.067 236.843,231.319 249.533,237.578 254.414 C 238.556 255.176,239.888 256.295,240.537 256.900 C 241.187 257.505,241.874 258.000,242.063 258.000 C 242.252 258.000,242.972 258.540,243.663 259.200 C 244.354 259.860,245.162 260.400,245.459 260.400 C 245.757 260.400,246.002 260.535,246.004 260.700 C 246.007 260.865,247.259 261.810,248.787 262.800 C 250.788 264.096,251.728 264.992,252.144 266.000 C 252.679 267.294,252.725 267.323,252.761 266.375 C 252.809 265.110,251.747 264.097,247.000 260.883 C 239.100 255.534,225.831 243.618,220.500 237.084 C 219.565 235.938,218.330 234.460,217.755 233.800 C 217.181 233.140,216.237 231.970,215.658 231.200 C 215.078 230.430,214.508 229.710,214.391 229.600 C 213.839 229.083,209.483 223.026,207.343 219.800 C 205.077 216.383,203.959 214.578,201.548 210.438 C 200.055 207.875,199.938 207.927,197.358 212.280 M321.855 219.800 C 321.580 220.517,321.938 221.600,322.450 221.600 C 322.651 221.600,322.709 222.024,322.579 222.542 C 322.433 223.124,322.574 223.717,322.947 224.090 C 323.280 224.423,323.459 225.052,323.345 225.488 C 323.231 225.924,323.403 226.546,323.727 226.870 C 324.073 227.216,324.236 227.880,324.121 228.479 C 324.006 229.083,324.165 229.723,324.512 230.047 C 324.900 230.410,325.033 231.076,324.906 232.025 C 324.785 232.925,324.917 233.669,325.260 234.028 C 325.561 234.343,325.805 235.393,325.803 236.363 C 325.801 237.419,326.001 238.195,326.300 238.297 C 326.661 238.419,326.800 237.844,326.800 236.233 C 326.800 235.005,326.620 234.000,326.400 234.000 C 326.180 234.000,326.000 233.100,326.000 232.000 C 326.000 230.900,325.820 230.000,325.600 230.000 C 325.380 230.000,325.200 229.517,325.200 228.926 C 325.200 227.609,324.105 222.858,323.582 221.905 C 323.372 221.523,323.200 220.758,323.200 220.205 C 323.200 219.102,322.235 218.811,321.855 219.800 M326.643 239.433 C 326.209 240.562,326.386 242.755,326.953 243.284 C 327.350 243.655,327.448 244.437,327.300 246.064 C 327.078 248.521,327.384 250.400,328.008 250.400 C 328.528 250.400,328.520 244.122,328.000 243.800 C 327.780 243.664,327.600 242.483,327.600 241.176 C 327.600 238.900,327.157 238.093,326.643 239.433 M252.800 271.000 C 252.800 271.550,252.944 272.000,253.120 272.000 C 253.296 272.000,253.440 271.550,253.440 271.000 C 253.440 270.450,253.296 270.000,253.120 270.000 C 252.944 270.000,252.800 270.450,252.800 271.000 M254.400 277.953 C 254.400 278.996,255.016 279.377,255.092 278.380 C 255.123 277.960,254.981 277.512,254.775 277.384 C 254.569 277.257,254.400 277.513,254.400 277.953 M255.976 282.400 C 255.955 282.510,255.883 282.885,255.815 283.233 C 255.746 283.582,255.940 283.867,256.245 283.867 C 256.550 283.867,256.797 283.762,256.794 283.633 C 256.785 283.308,256.021 282.155,255.976 282.400 M256.514 285.114 C 256.589 285.607,256.860 286.220,257.116 286.476 C 257.470 286.830,257.538 286.715,257.400 286.000 C 257.154 284.724,256.328 283.898,256.514 285.114 M269.200 307.924 C 269.200 308.107,269.650 308.647,270.200 309.125 C 270.750 309.603,271.200 310.176,271.200 310.397 C 271.200 310.619,271.484 310.800,271.830 310.800 C 272.335 310.800,272.275 310.570,271.530 309.649 C 270.498 308.372,269.200 307.412,269.200 307.924 " stroke="none" fill="#4c6b6c" fill-rule="evenodd"></path><path id="path1" d="M231.200 126.012 C 225.518 131.782,221.082 135.088,215.988 137.349 C 214.565 137.980,213.087 138.655,212.705 138.849 C 212.323 139.042,211.659 139.200,211.229 139.200 C 210.799 139.200,210.336 139.380,210.200 139.600 C 210.064 139.820,209.344 140.000,208.600 140.000 C 207.856 140.000,207.136 140.180,207.000 140.400 C 206.864 140.620,205.233 140.800,203.376 140.800 L 200.000 140.800 200.000 151.800 L 200.000 162.800 205.776 162.800 C 212.449 162.800,212.056 162.549,212.276 166.954 C 212.562 172.661,212.858 175.390,213.234 175.780 C 213.435 175.989,213.600 176.606,213.600 177.152 C 213.600 178.047,213.991 179.563,214.800 181.800 C 214.959 182.240,215.306 183.320,215.571 184.200 C 215.836 185.080,216.221 186.205,216.426 186.700 C 216.632 187.195,216.956 188.005,217.147 188.500 C 219.179 193.765,226.119 206.256,227.277 206.733 C 227.455 206.807,227.600 207.088,227.600 207.358 C 227.600 207.628,227.917 208.198,228.304 208.625 C 228.691 209.051,229.636 210.210,230.404 211.200 C 234.362 216.302,241.058 223.416,244.009 225.655 C 244.774 226.235,245.850 227.107,246.400 227.593 C 248.299 229.272,257.118 235.600,257.559 235.600 C 257.801 235.600,258.000 235.780,258.000 236.000 C 258.000 236.220,258.236 236.400,258.525 236.400 C 258.813 236.400,259.398 236.715,259.825 237.100 C 260.521 237.728,262.592 238.930,265.097 240.160 C 265.590 240.402,265.995 240.735,265.997 240.900 C 265.999 241.065,266.345 241.200,266.767 241.200 C 267.188 241.200,267.593 241.342,267.667 241.515 C 267.795 241.817,270.553 243.208,273.700 244.557 C 274.525 244.911,275.785 245.453,276.500 245.762 C 279.560 247.085,281.107 247.696,282.800 248.250 C 283.790 248.575,284.960 249.002,285.400 249.200 C 285.840 249.397,287.460 249.952,289.000 250.432 C 290.540 250.912,292.160 251.436,292.600 251.597 C 294.702 252.365,296.333 252.800,297.105 252.800 C 297.571 252.800,298.052 252.960,298.173 253.156 C 298.380 253.492,299.393 253.728,302.903 254.258 C 303.729 254.382,304.505 254.645,304.626 254.842 C 304.748 255.039,305.546 255.200,306.400 255.200 C 307.254 255.200,308.064 255.380,308.200 255.600 C 308.336 255.820,309.236 256.000,310.200 256.000 C 311.164 256.000,312.064 256.180,312.200 256.400 C 312.336 256.620,313.416 256.800,314.600 256.800 C 315.784 256.800,316.864 256.980,317.000 257.200 C 317.145 257.435,319.471 257.600,322.624 257.600 L 328.000 257.600 328.005 255.100 C 328.012 252.143,328.332 250.711,328.907 251.066 C 329.149 251.216,329.204 251.130,329.038 250.862 C 328.881 250.608,328.497 250.400,328.184 250.400 C 327.395 250.400,327.058 248.743,327.300 246.064 C 327.455 244.361,327.356 243.661,326.903 243.238 C 326.453 242.818,326.356 242.145,326.518 240.568 C 326.691 238.896,326.608 238.412,326.117 238.223 C 325.647 238.043,325.544 237.576,325.690 236.282 C 325.823 235.100,325.702 234.411,325.296 234.032 C 324.906 233.667,324.775 233.002,324.904 232.039 C 325.033 231.077,324.902 230.411,324.512 230.047 C 324.165 229.723,324.006 229.083,324.121 228.479 C 324.236 227.880,324.073 227.216,323.727 226.870 C 323.403 226.546,323.231 225.924,323.345 225.488 C 323.459 225.052,323.279 224.422,322.945 224.088 C 322.611 223.754,322.431 223.124,322.545 222.688 C 322.659 222.252,322.493 221.636,322.176 221.319 C 321.446 220.589,321.451 220.206,322.200 219.457 C 322.985 218.672,322.977 218.155,322.190 218.808 C 321.441 219.430,321.228 219.243,321.114 217.868 C 321.065 217.281,320.885 216.800,320.713 216.800 C 320.541 216.800,320.400 216.438,320.400 215.995 C 320.400 215.552,320.241 214.877,320.047 214.495 C 319.852 214.113,319.471 213.260,319.200 212.600 C 318.929 211.940,318.548 211.087,318.353 210.705 C 318.159 210.323,318.000 209.738,318.000 209.405 C 318.000 209.072,317.820 208.800,317.600 208.800 C 317.380 208.800,317.201 208.575,317.203 208.300 C 317.207 207.667,313.912 201.046,313.504 200.867 C 313.337 200.793,313.200 200.388,313.200 199.967 C 313.200 199.545,313.020 199.200,312.800 199.200 C 312.580 199.200,312.400 199.007,312.400 198.772 C 312.400 198.537,311.860 197.559,311.200 196.600 C 310.540 195.641,310.000 194.691,310.000 194.490 C 310.000 194.289,309.640 193.798,309.200 193.400 C 308.760 193.002,308.400 192.507,308.400 192.301 C 308.400 192.095,308.024 191.448,307.565 190.863 C 307.106 190.278,306.025 188.835,305.162 187.656 C 298.915 179.115,286.729 167.521,276.400 160.293 C 275.850 159.908,274.590 158.964,273.600 158.196 C 272.610 157.428,271.530 156.678,271.200 156.529 C 270.870 156.380,270.510 156.147,270.400 156.010 C 270.290 155.873,269.570 155.329,268.800 154.800 C 268.030 154.271,267.310 153.731,267.200 153.600 C 267.090 153.469,266.370 152.929,265.600 152.400 C 264.830 151.871,264.110 151.331,264.000 151.200 C 263.890 151.069,263.170 150.529,262.400 150.000 C 261.630 149.471,260.910 148.931,260.800 148.800 C 260.690 148.669,259.970 148.129,259.200 147.600 C 258.430 147.071,257.710 146.539,257.600 146.417 C 257.490 146.295,256.680 145.661,255.800 145.008 C 251.392 141.737,245.433 135.769,242.812 132.000 C 242.277 131.230,241.730 130.510,241.598 130.400 C 241.140 130.019,238.014 123.600,238.286 123.600 C 238.437 123.600,238.344 123.384,238.080 123.120 C 237.816 122.856,237.600 122.338,237.600 121.969 C 237.600 119.931,236.509 120.620,231.200 126.012 M200.000 288.551 C 200.000 333.766,200.151 367.600,200.352 367.600 C 200.545 367.600,201.374 366.782,202.193 365.783 C 205.490 361.759,218.247 349.276,222.000 346.401 C 222.990 345.643,224.070 344.739,224.400 344.392 C 224.730 344.046,225.630 343.329,226.400 342.800 C 227.170 342.271,227.890 341.734,228.000 341.605 C 228.460 341.070,236.650 335.082,237.200 334.879 C 237.530 334.758,237.890 334.531,238.000 334.374 C 238.110 334.218,238.768 333.755,239.463 333.345 C 240.157 332.935,242.677 331.433,245.063 330.006 C 247.448 328.579,250.300 326.964,251.400 326.416 C 252.500 325.869,253.460 325.282,253.533 325.111 C 253.607 324.940,254.012 324.800,254.433 324.800 C 254.855 324.800,255.200 324.620,255.200 324.400 C 255.200 324.180,255.560 324.000,256.000 324.000 C 256.440 324.000,256.800 323.820,256.800 323.600 C 256.800 323.380,257.160 323.200,257.600 323.200 C 258.040 323.200,258.400 323.020,258.400 322.800 C 258.400 322.580,258.760 322.400,259.200 322.400 C 259.640 322.400,260.000 322.220,260.000 322.000 C 260.000 321.780,260.245 321.600,260.544 321.600 C 260.843 321.600,262.238 321.036,263.644 320.347 C 265.050 319.658,266.605 318.938,267.100 318.747 C 267.595 318.556,268.450 318.220,269.000 318.000 C 269.550 317.780,270.405 317.444,270.900 317.254 C 275.589 315.449,276.150 315.111,275.276 314.623 C 274.859 314.390,274.590 313.991,274.680 313.737 C 274.769 313.482,274.625 313.139,274.359 312.975 C 274.025 312.769,273.978 312.850,274.207 313.238 C 274.389 313.547,274.159 313.468,273.696 313.062 C 273.195 312.624,272.952 312.069,273.096 311.693 C 273.278 311.220,273.166 311.128,272.649 311.326 C 272.238 311.484,272.057 311.431,272.203 311.195 C 272.337 310.978,272.167 310.800,271.824 310.800 C 271.481 310.800,271.200 310.619,271.200 310.397 C 271.200 310.176,270.750 309.603,270.200 309.125 C 269.650 308.647,269.200 307.928,269.200 307.528 C 269.200 307.128,269.020 306.800,268.800 306.800 C 268.580 306.800,268.400 306.513,268.400 306.163 C 268.400 305.812,268.040 305.431,267.600 305.316 C 267.160 305.201,266.778 304.948,266.750 304.753 C 266.723 304.559,266.655 304.220,266.600 304.000 C 266.545 303.780,266.478 303.420,266.450 303.200 C 266.423 302.980,266.130 302.800,265.800 302.800 C 265.470 302.800,265.178 302.530,265.150 302.200 C 265.016 300.590,264.359 299.422,263.950 300.066 C 263.710 300.446,263.610 300.333,263.606 299.671 C 263.603 299.161,263.320 298.463,262.977 298.120 C 262.634 297.777,262.456 297.230,262.582 296.904 C 262.743 296.484,262.622 296.383,262.168 296.557 C 261.737 296.722,261.457 296.539,261.316 296.002 C 261.201 295.561,260.948 295.200,260.753 295.200 C 260.559 295.200,260.400 294.739,260.400 294.176 C 260.400 293.530,260.237 293.254,259.957 293.426 C 259.659 293.611,259.603 293.422,259.784 292.850 C 259.955 292.313,259.881 292.000,259.584 292.000 C 259.326 292.000,259.217 291.733,259.342 291.406 C 259.476 291.057,259.247 290.639,258.785 290.392 C 258.353 290.161,258.000 289.698,258.000 289.362 C 258.000 289.027,258.178 288.863,258.395 288.997 C 258.620 289.136,258.690 288.979,258.557 288.633 C 258.429 288.299,258.139 288.065,257.912 288.113 C 257.685 288.161,257.409 287.950,257.298 287.644 C 257.158 287.258,257.264 287.190,257.648 287.421 C 258.099 287.693,258.109 287.641,257.703 287.140 C 257.430 286.803,257.340 286.393,257.503 286.230 C 257.667 286.067,257.537 285.993,257.214 286.067 C 256.808 286.159,256.615 285.833,256.583 285.000 C 256.558 284.340,256.351 283.837,256.123 283.882 C 255.868 283.932,255.781 283.338,255.898 282.332 C 256.028 281.201,255.950 280.784,255.643 280.973 C 255.364 281.146,255.200 280.877,255.200 280.247 C 255.200 279.697,255.020 279.136,254.800 279.000 C 254.580 278.864,254.400 278.393,254.400 277.953 C 254.400 277.509,254.582 277.265,254.810 277.406 C 255.035 277.545,254.855 277.011,254.410 276.218 C 253.592 274.762,253.282 273.689,254.000 274.800 C 254.233 275.161,254.390 275.210,254.394 274.924 C 254.397 274.662,254.220 274.336,254.000 274.200 C 253.780 274.064,253.600 273.513,253.600 272.976 C 253.600 272.439,253.420 272.000,253.200 272.000 C 252.980 272.000,252.800 271.061,252.800 269.913 C 252.800 266.351,251.954 264.851,248.787 262.800 C 247.259 261.810,246.007 260.865,246.004 260.700 C 246.002 260.535,245.757 260.400,245.459 260.400 C 245.162 260.400,244.354 259.860,243.663 259.200 C 242.972 258.540,242.252 258.000,242.063 258.000 C 241.874 258.000,241.187 257.505,240.537 256.900 C 239.888 256.295,238.556 255.176,237.578 254.414 C 231.319 249.533,219.067 236.843,214.201 230.200 C 213.556 229.320,212.804 228.368,212.529 228.085 C 212.253 227.802,211.713 227.037,211.328 226.385 C 210.943 225.733,210.486 225.200,210.314 225.200 C 210.141 225.200,210.000 224.975,209.999 224.700 C 209.999 224.425,209.459 223.570,208.800 222.800 C 208.141 222.030,207.601 221.257,207.601 221.083 C 207.600 220.909,207.240 220.380,206.800 219.908 C 206.360 219.436,206.000 218.813,206.000 218.525 C 206.000 218.236,205.820 218.000,205.600 218.000 C 205.380 218.000,205.200 217.730,205.200 217.400 C 205.200 217.070,205.050 216.800,204.868 216.800 C 204.685 216.800,204.285 216.305,203.980 215.700 C 203.674 215.095,202.924 213.848,202.312 212.928 C 201.701 212.008,201.200 211.085,201.200 210.877 C 201.200 210.668,200.930 210.274,200.600 210.000 C 200.067 209.558,200.000 218.331,200.000 288.551 " stroke="none" fill="#45663a" fill-rule="evenodd"></path><path id="path2" d="M0.000 388.100 L 0.000 400.000 200.000 400.000 L 400.000 400.000 400.000 388.100 L 400.000 376.200 200.000 376.200 L 0.000 376.200 0.000 388.100 " stroke="none" fill="#9cdc04" fill-rule="evenodd"></path><path id="path3" d="M188.700 0.294 C 187.655 0.376,186.800 0.614,186.800 0.822 C 186.800 1.030,186.091 1.200,185.224 1.200 C 184.357 1.200,183.536 1.380,183.400 1.600 C 183.264 1.820,182.634 2.000,182.000 2.000 C 181.366 2.000,180.736 2.180,180.600 2.400 C 180.464 2.620,180.003 2.800,179.576 2.800 C 179.149 2.800,178.800 2.980,178.800 3.200 C 178.800 3.420,178.451 3.600,178.024 3.600 C 177.597 3.600,177.136 3.780,177.000 4.000 C 176.864 4.220,176.313 4.400,175.776 4.400 C 175.239 4.400,174.800 4.580,174.800 4.800 C 174.800 5.020,174.440 5.200,174.000 5.200 C 173.560 5.200,173.200 5.338,173.200 5.506 C 173.200 5.674,172.504 6.113,171.653 6.482 C 170.801 6.850,169.856 7.388,169.551 7.676 C 169.247 7.964,167.969 8.722,166.712 9.360 C 165.455 9.997,164.521 10.672,164.637 10.860 C 164.753 11.047,164.629 11.200,164.363 11.200 C 163.624 11.200,160.426 13.729,160.412 14.324 C 160.406 14.612,160.220 14.736,160.000 14.600 C 159.780 14.464,159.600 14.531,159.600 14.748 C 159.600 14.966,158.250 16.525,156.600 18.213 C 154.950 19.901,153.600 21.445,153.600 21.645 C 153.600 21.844,153.060 22.572,152.400 23.263 C 151.740 23.954,151.200 24.773,151.200 25.083 C 151.200 25.393,151.039 25.548,150.842 25.426 C 150.499 25.214,150.000 26.007,149.770 27.134 C 149.710 27.427,149.346 27.897,148.962 28.178 C 148.578 28.459,148.214 29.026,148.153 29.437 C 148.093 29.849,147.854 30.249,147.622 30.326 C 147.390 30.403,147.200 30.822,147.200 31.257 C 147.200 31.754,147.028 31.941,146.737 31.761 C 146.422 31.566,146.344 31.742,146.493 32.312 C 146.626 32.822,146.495 33.231,146.156 33.362 C 145.850 33.479,145.600 33.941,145.600 34.387 C 145.600 34.834,145.458 35.200,145.285 35.200 C 145.112 35.200,144.940 35.602,144.903 36.094 C 144.866 36.586,144.646 37.051,144.415 37.128 C 144.184 37.205,144.094 37.429,144.216 37.626 C 144.338 37.823,144.216 38.392,143.946 38.892 C 143.676 39.391,143.408 40.218,143.351 40.730 C 143.295 41.241,143.057 41.890,142.824 42.171 C 142.590 42.453,142.410 43.114,142.422 43.641 C 142.435 44.169,142.271 45.408,142.059 46.397 C 141.846 47.385,141.749 48.317,141.843 48.469 C 141.936 48.621,141.830 48.858,141.607 48.996 C 141.349 49.155,141.200 52.905,141.200 59.247 C 141.200 64.747,141.335 69.165,141.500 69.064 C 141.665 68.962,141.856 69.892,141.924 71.128 C 141.993 72.365,142.200 73.562,142.384 73.788 C 142.569 74.015,142.662 74.708,142.592 75.328 C 142.522 75.949,142.713 77.051,143.016 77.777 C 143.320 78.504,143.442 79.225,143.287 79.379 C 143.133 79.534,143.275 79.810,143.603 79.994 C 143.952 80.189,144.194 80.884,144.187 81.664 C 144.179 82.399,144.297 83.090,144.447 83.200 C 144.598 83.310,144.810 83.940,144.918 84.600 C 145.026 85.260,145.491 86.745,145.952 87.900 C 146.412 89.055,146.704 90.000,146.601 90.000 C 146.498 90.000,146.771 90.635,147.207 91.412 C 147.643 92.189,148.000 93.072,148.000 93.374 C 148.000 93.677,148.386 94.706,148.857 95.662 C 149.328 96.618,149.890 97.850,150.106 98.400 C 150.321 98.950,150.741 99.870,151.038 100.444 C 151.336 101.018,151.464 101.603,151.323 101.744 C 151.182 101.885,151.277 102.000,151.533 102.000 C 151.790 102.000,152.000 102.360,152.000 102.800 C 152.000 103.240,152.180 103.600,152.400 103.600 C 152.620 103.600,152.800 103.842,152.800 104.138 C 152.800 104.434,153.160 105.002,153.600 105.400 C 154.040 105.798,154.400 106.456,154.400 106.862 C 154.400 107.268,154.580 107.600,154.800 107.600 C 155.020 107.600,155.200 107.870,155.200 108.200 C 155.200 108.530,155.380 108.800,155.600 108.800 C 155.820 108.800,156.000 109.160,156.000 109.600 C 156.000 110.040,156.180 110.400,156.400 110.400 C 156.620 110.400,156.800 110.720,156.800 111.112 C 156.800 111.503,157.160 112.083,157.600 112.400 C 158.040 112.717,158.400 113.207,158.400 113.488 C 158.400 113.770,158.760 114.360,159.200 114.800 C 159.640 115.240,159.984 115.735,159.964 115.900 C 159.868 116.698,161.506 118.367,162.776 118.767 C 163.715 119.062,164.743 119.905,165.791 121.240 C 169.081 125.425,173.848 129.863,178.200 132.794 C 180.595 134.406,182.063 135.226,186.895 137.651 C 187.277 137.843,187.941 138.000,188.371 138.000 C 188.801 138.000,189.264 138.180,189.400 138.400 C 189.536 138.620,190.166 138.800,190.800 138.800 C 191.434 138.800,192.049 138.955,192.166 139.144 C 192.283 139.334,193.508 139.604,194.889 139.744 C 196.270 139.885,197.985 140.110,198.700 140.245 L 200.000 140.491 200.000 70.245 L 200.000 0.000 195.300 0.072 C 192.715 0.112,189.745 0.212,188.700 0.294 M102.000 24.400 C 102.000 24.620,101.726 24.800,101.392 24.800 C 101.058 24.800,100.071 25.250,99.200 25.800 C 98.329 26.350,97.510 26.800,97.380 26.800 C 97.250 26.800,96.359 27.340,95.400 28.000 C 94.441 28.660,93.546 29.200,93.411 29.200 C 93.277 29.200,92.780 29.560,92.308 30.000 C 91.836 30.440,91.213 30.800,90.925 30.800 C 90.636 30.800,90.400 30.980,90.400 31.200 C 90.400 31.420,90.164 31.600,89.875 31.600 C 89.587 31.600,88.964 31.960,88.492 32.400 C 88.020 32.840,87.491 33.200,87.317 33.201 C 87.143 33.201,86.370 33.741,85.600 34.400 C 84.830 35.059,84.015 35.599,83.788 35.599 C 83.562 35.600,83.117 35.960,82.800 36.400 C 82.483 36.840,82.020 37.200,81.771 37.200 C 81.522 37.200,80.754 37.740,80.063 38.400 C 79.372 39.060,78.626 39.600,78.404 39.600 C 78.182 39.600,78.000 39.780,78.000 40.000 C 78.000 40.220,77.770 40.400,77.488 40.400 C 77.207 40.400,76.717 40.760,76.400 41.200 C 76.083 41.640,75.631 42.000,75.395 42.000 C 75.159 42.000,74.344 42.586,73.583 43.303 C 72.823 44.020,71.570 45.050,70.800 45.592 C 70.030 46.134,68.557 47.438,67.526 48.489 C 66.495 49.540,65.552 50.400,65.431 50.400 C 64.947 50.400,59.554 55.377,59.738 55.654 C 59.792 55.734,58.883 56.734,57.718 57.876 C 56.553 59.018,55.600 59.867,55.600 59.763 C 55.600 59.446,53.111 62.073,51.201 64.404 C 50.212 65.612,48.766 67.230,47.988 68.000 C 47.211 68.770,46.134 70.030,45.596 70.800 C 45.058 71.570,44.253 72.596,43.809 73.081 C 42.424 74.589,42.000 75.155,42.000 75.495 C 42.000 75.676,41.640 76.083,41.200 76.400 C 40.760 76.717,40.400 77.207,40.400 77.488 C 40.400 77.770,40.220 78.000,40.000 78.000 C 39.780 78.000,39.600 78.182,39.600 78.404 C 39.600 78.626,39.060 79.372,38.400 80.063 C 37.740 80.754,37.200 81.522,37.200 81.771 C 37.200 82.020,36.840 82.483,36.400 82.800 C 35.960 83.117,35.600 83.615,35.600 83.906 C 35.600 84.198,35.164 84.872,34.631 85.405 C 34.098 85.938,33.546 86.740,33.404 87.187 C 33.262 87.634,32.978 88.000,32.773 88.000 C 32.568 88.000,32.400 88.236,32.400 88.525 C 32.400 88.813,32.040 89.436,31.600 89.908 C 31.160 90.380,30.800 91.004,30.800 91.295 C 30.800 91.586,30.440 92.083,30.000 92.400 C 29.560 92.717,29.200 93.129,29.200 93.316 C 29.200 93.503,28.693 94.408,28.073 95.328 C 27.454 96.248,26.639 97.667,26.263 98.483 C 25.886 99.299,25.403 100.074,25.189 100.207 C 24.975 100.339,24.800 100.797,24.800 101.224 C 24.800 101.651,24.620 102.000,24.400 102.000 C 24.180 102.000,24.000 102.360,24.000 102.800 C 24.000 103.240,23.820 103.600,23.600 103.600 C 23.380 103.600,23.200 103.960,23.200 104.400 C 23.200 104.840,23.020 105.200,22.800 105.200 C 22.580 105.200,22.400 105.560,22.400 106.000 C 22.400 106.440,22.220 106.800,22.000 106.800 C 21.780 106.800,21.600 107.160,21.600 107.600 C 21.600 108.040,21.454 108.400,21.275 108.400 C 21.096 108.400,20.702 109.030,20.400 109.800 C 20.098 110.570,19.704 111.200,19.525 111.200 C 19.346 111.200,19.200 111.560,19.200 112.000 C 19.200 112.440,19.020 112.800,18.800 112.800 C 18.580 112.800,18.400 113.160,18.400 113.600 C 18.400 114.040,18.220 114.400,18.000 114.400 C 17.780 114.400,17.600 114.760,17.600 115.200 C 17.600 115.640,17.420 116.000,17.200 116.000 C 16.980 116.000,16.800 116.360,16.800 116.800 C 16.800 117.240,16.620 117.600,16.400 117.600 C 16.180 117.600,16.000 118.039,16.000 118.576 C 16.000 119.113,15.820 119.664,15.600 119.800 C 15.380 119.936,15.200 120.397,15.200 120.824 C 15.200 121.251,15.020 121.600,14.800 121.600 C 14.580 121.600,14.400 121.960,14.400 122.400 C 14.400 122.840,14.220 123.200,14.000 123.200 C 13.780 123.200,13.600 123.740,13.600 124.400 C 13.600 125.060,13.420 125.600,13.200 125.600 C 12.980 125.600,12.800 125.960,12.800 126.400 C 12.800 126.840,12.620 127.200,12.400 127.200 C 12.180 127.200,12.000 127.639,12.000 128.176 C 12.000 128.713,11.820 129.264,11.600 129.400 C 11.380 129.536,11.200 130.087,11.200 130.624 C 11.200 131.161,11.020 131.600,10.800 131.600 C 10.580 131.600,10.400 131.962,10.400 132.405 C 10.400 132.848,10.237 133.523,10.037 133.905 C 9.391 135.140,8.400 138.859,8.400 140.046 C 8.400 140.681,8.220 141.200,8.000 141.200 C 7.780 141.200,7.600 141.740,7.600 142.400 C 7.600 143.060,7.420 143.600,7.200 143.600 C 6.980 143.600,6.800 144.230,6.800 145.000 C 6.800 145.770,6.620 146.400,6.400 146.400 C 6.180 146.400,6.000 147.030,6.000 147.800 C 6.000 148.570,5.820 149.200,5.600 149.200 C 5.380 149.200,5.200 149.819,5.200 150.576 C 5.200 151.333,5.020 152.064,4.800 152.200 C 4.580 152.336,4.400 153.247,4.400 154.224 C 4.400 155.201,4.220 156.000,4.000 156.000 C 3.780 156.000,3.600 156.810,3.600 157.800 C 3.600 158.790,3.420 159.600,3.200 159.600 C 2.980 159.600,2.800 160.500,2.800 161.600 C 2.800 162.700,2.620 163.600,2.400 163.600 C 2.178 163.600,2.000 164.667,2.000 166.000 C 2.000 167.333,1.822 168.400,1.600 168.400 C 1.372 168.400,1.200 169.589,1.200 171.167 C 1.200 173.024,1.036 173.988,0.700 174.100 C -0.032 174.344,-0.032 224.056,0.700 224.300 C 1.035 224.412,1.200 225.371,1.200 227.210 C 1.200 228.718,1.380 230.064,1.600 230.200 C 1.820 230.336,2.000 231.416,2.000 232.600 C 2.000 233.784,2.180 234.864,2.400 235.000 C 2.620 235.136,2.800 236.137,2.800 237.224 C 2.800 238.311,2.980 239.200,3.200 239.200 C 3.420 239.200,3.600 239.999,3.600 240.976 C 3.600 241.953,3.780 242.864,4.000 243.000 C 4.220 243.136,4.400 243.957,4.400 244.824 C 4.400 245.691,4.580 246.400,4.800 246.400 C 5.020 246.400,5.200 247.120,5.200 248.000 C 5.200 248.880,5.380 249.600,5.600 249.600 C 5.820 249.600,6.000 250.219,6.000 250.976 C 6.000 251.733,6.180 252.464,6.400 252.600 C 6.620 252.736,6.800 253.377,6.800 254.024 C 6.800 254.671,6.980 255.200,7.200 255.200 C 7.420 255.200,7.600 255.729,7.600 256.376 C 7.600 257.023,7.780 257.664,8.000 257.800 C 8.220 257.936,8.400 258.480,8.400 259.010 C 8.400 259.986,9.355 263.303,9.952 264.400 C 10.131 264.730,10.519 265.945,10.815 267.100 C 11.110 268.255,11.497 269.200,11.676 269.200 C 11.854 269.200,12.000 269.562,12.000 270.005 C 12.000 270.448,12.180 271.168,12.400 271.605 C 12.620 272.042,12.980 272.758,13.200 273.195 C 13.420 273.632,13.600 274.262,13.600 274.595 C 13.600 275.930,18.070 275.004,22.495 272.753 C 22.877 272.559,23.462 272.400,23.795 272.400 C 24.128 272.400,24.400 272.220,24.400 272.000 C 24.400 271.780,24.749 271.600,25.176 271.600 C 25.603 271.600,26.064 271.420,26.200 271.200 C 26.336 270.980,26.887 270.800,27.424 270.800 C 27.961 270.800,28.400 270.620,28.400 270.400 C 28.400 270.180,28.760 270.000,29.200 270.000 C 29.640 270.000,30.000 269.853,30.000 269.672 C 30.000 269.492,30.900 269.100,32.000 268.800 C 33.100 268.500,34.000 268.108,34.000 267.928 C 34.000 267.747,34.450 267.600,35.000 267.600 C 35.550 267.600,36.000 267.420,36.000 267.200 C 36.000 266.980,36.270 266.800,36.600 266.800 C 37.278 266.800,37.433 264.847,36.847 263.695 C 36.652 263.313,36.271 262.460,36.000 261.800 C 35.729 261.140,35.348 260.287,35.153 259.905 C 34.959 259.523,34.800 258.848,34.800 258.405 C 34.800 257.962,34.620 257.600,34.400 257.600 C 34.180 257.600,34.000 257.060,34.000 256.400 C 34.000 255.740,33.820 255.200,33.600 255.200 C 33.380 255.200,33.200 254.660,33.200 254.000 C 33.200 253.340,33.020 252.800,32.800 252.800 C 32.580 252.800,32.400 252.260,32.400 251.600 C 32.400 250.940,32.220 250.400,32.000 250.400 C 31.780 250.400,31.600 249.860,31.600 249.200 C 31.600 248.540,31.420 248.000,31.200 248.000 C 30.980 248.000,30.800 247.381,30.800 246.624 C 30.800 245.867,30.620 245.136,30.400 245.000 C 30.180 244.864,30.000 244.223,30.000 243.576 C 30.000 242.929,29.820 242.400,29.600 242.400 C 29.380 242.400,29.200 241.691,29.200 240.824 C 29.200 239.957,29.020 239.136,28.800 239.000 C 28.580 238.864,28.400 238.043,28.400 237.176 C 28.400 236.309,28.220 235.600,28.000 235.600 C 27.780 235.600,27.600 234.700,27.600 233.600 C 27.600 232.500,27.420 231.600,27.200 231.600 C 26.980 231.600,26.800 230.610,26.800 229.400 C 26.800 228.190,26.620 227.200,26.400 227.200 C 26.178 227.200,26.000 226.133,26.000 224.800 C 26.000 223.480,25.847 222.400,25.660 222.400 C 25.101 222.400,24.651 211.798,24.667 199.000 C 24.683 186.067,25.119 176.000,25.662 176.000 C 25.848 176.000,26.000 174.920,26.000 173.600 C 26.000 172.267,26.178 171.200,26.400 171.200 C 26.620 171.200,26.800 170.210,26.800 169.000 C 26.800 167.790,26.980 166.800,27.200 166.800 C 27.420 166.800,27.600 165.900,27.600 164.800 C 27.600 163.700,27.780 162.800,28.000 162.800 C 28.220 162.800,28.400 162.080,28.400 161.200 C 28.400 160.320,28.580 159.600,28.800 159.600 C 29.020 159.600,29.200 158.880,29.200 158.000 C 29.200 157.120,29.380 156.400,29.600 156.400 C 29.820 156.400,30.000 155.781,30.000 155.024 C 30.000 154.267,30.180 153.536,30.400 153.400 C 30.620 153.264,30.800 152.634,30.800 152.000 C 30.800 151.366,30.980 150.736,31.200 150.600 C 31.420 150.464,31.600 149.823,31.600 149.176 C 31.600 148.529,31.780 148.000,32.000 148.000 C 32.220 148.000,32.400 147.471,32.400 146.824 C 32.400 146.177,32.580 145.536,32.800 145.400 C 33.020 145.264,33.200 144.724,33.200 144.200 C 33.200 143.676,33.380 143.136,33.600 143.000 C 33.820 142.864,34.000 142.313,34.000 141.776 C 34.000 141.239,34.180 140.800,34.400 140.800 C 34.620 140.800,34.800 140.350,34.800 139.800 C 34.800 139.250,34.980 138.800,35.200 138.800 C 35.420 138.800,35.600 138.361,35.600 137.824 C 35.600 137.287,35.780 136.736,36.000 136.600 C 36.220 136.464,36.400 136.003,36.400 135.576 C 36.400 135.149,36.547 134.800,36.728 134.800 C 36.908 134.800,37.300 133.900,37.600 132.800 C 37.900 131.700,38.292 130.800,38.472 130.800 C 38.653 130.800,38.800 130.558,38.800 130.261 C 38.800 129.965,39.059 129.200,39.375 128.561 C 40.055 127.190,40.919 125.111,40.966 124.733 C 40.985 124.587,41.135 124.332,41.300 124.167 C 41.465 124.002,41.600 123.537,41.600 123.133 C 41.600 122.730,41.780 122.400,42.000 122.400 C 42.220 122.400,42.400 122.040,42.400 121.600 C 42.400 121.160,42.580 120.800,42.800 120.800 C 43.020 120.800,43.200 120.440,43.200 120.000 C 43.200 119.560,43.346 119.200,43.525 119.200 C 43.704 119.200,44.098 118.570,44.400 117.800 C 44.702 117.030,45.096 116.400,45.275 116.400 C 45.454 116.400,45.600 116.130,45.600 115.800 C 45.600 115.470,45.780 115.200,46.000 115.200 C 46.220 115.200,46.400 114.840,46.400 114.400 C 46.400 113.960,46.580 113.600,46.800 113.600 C 47.020 113.600,47.200 113.240,47.200 112.800 C 47.200 112.360,47.380 112.000,47.600 112.000 C 47.820 112.000,48.000 111.764,48.000 111.475 C 48.000 111.187,48.360 110.564,48.800 110.092 C 49.240 109.620,49.600 108.971,49.600 108.650 C 49.600 108.329,49.735 108.007,49.900 107.933 C 50.355 107.731,52.000 105.290,52.000 104.816 C 52.000 104.587,52.150 104.400,52.332 104.400 C 52.515 104.400,52.920 103.905,53.232 103.300 C 53.545 102.695,54.115 101.851,54.500 101.425 C 54.885 100.998,55.200 100.413,55.200 100.125 C 55.200 99.836,55.343 99.600,55.517 99.600 C 55.692 99.600,56.367 98.704,57.017 97.608 C 57.668 96.512,58.335 95.612,58.500 95.608 C 58.665 95.604,58.800 95.312,58.800 94.960 C 58.800 94.609,59.340 93.817,60.000 93.200 C 60.660 92.583,61.200 91.953,61.200 91.800 C 61.200 91.647,61.702 91.044,62.315 90.460 C 62.929 89.877,63.869 88.770,64.404 88.000 C 64.940 87.230,66.198 85.790,67.200 84.800 C 68.202 83.810,69.457 82.383,69.989 81.629 C 70.771 80.520,72.769 78.286,75.489 75.479 C 77.042 73.877,81.832 69.600,82.074 69.600 C 82.244 69.600,83.332 68.653,84.491 67.495 C 85.651 66.338,87.230 64.950,88.000 64.411 C 88.770 63.872,89.877 62.929,90.460 62.315 C 91.044 61.702,91.647 61.200,91.800 61.200 C 91.953 61.200,92.583 60.660,93.200 60.000 C 93.817 59.340,94.532 58.800,94.789 58.800 C 95.047 58.800,95.508 58.575,95.815 58.300 C 96.812 57.406,97.381 57.010,98.500 56.432 C 99.105 56.120,99.600 55.715,99.600 55.532 C 99.600 55.350,99.836 55.200,100.125 55.200 C 100.413 55.200,100.998 54.885,101.425 54.500 C 101.851 54.115,102.695 53.545,103.300 53.232 C 103.905 52.920,104.400 52.515,104.400 52.332 C 104.400 52.150,104.636 52.000,104.925 52.000 C 105.213 52.000,105.836 51.640,106.308 51.200 C 106.780 50.760,107.354 50.400,107.583 50.400 C 107.812 50.400,108.000 50.220,108.000 50.000 C 108.000 49.780,108.320 49.600,108.712 49.600 C 109.103 49.600,109.683 49.240,110.000 48.800 C 110.317 48.360,110.897 48.000,111.288 48.000 C 111.680 48.000,112.000 47.820,112.000 47.600 C 112.000 47.380,112.360 47.200,112.800 47.200 C 113.240 47.200,113.600 47.041,113.600 46.847 C 113.600 46.652,113.940 46.404,114.356 46.296 C 115.125 46.095,114.701 43.200,113.902 43.200 C 113.736 43.200,113.600 42.930,113.600 42.600 C 113.600 42.270,113.420 42.000,113.200 42.000 C 112.980 42.000,112.800 41.640,112.800 41.200 C 112.800 40.760,112.620 40.400,112.400 40.400 C 112.180 40.400,112.000 40.122,112.000 39.783 C 112.000 39.444,111.640 38.780,111.200 38.308 C 110.760 37.836,110.400 37.213,110.400 36.925 C 110.400 36.636,110.220 36.400,110.000 36.400 C 109.780 36.400,109.600 36.040,109.600 35.600 C 109.600 35.160,109.420 34.800,109.200 34.800 C 108.980 34.800,108.800 34.440,108.800 34.000 C 108.800 33.560,108.620 33.200,108.400 33.200 C 108.180 33.200,108.000 32.851,108.000 32.424 C 108.000 31.997,107.832 31.543,107.626 31.416 C 107.420 31.289,106.751 30.153,106.140 28.892 C 105.529 27.632,104.888 26.540,104.715 26.467 C 104.542 26.393,104.400 26.106,104.400 25.829 C 104.400 25.215,103.116 24.000,102.469 24.000 C 102.211 24.000,102.000 24.180,102.000 24.400 M296.262 24.731 C 295.898 25.134,295.600 25.674,295.600 25.931 C 295.600 26.189,295.390 26.400,295.133 26.400 C 294.877 26.400,294.776 26.510,294.911 26.644 C 295.045 26.778,294.741 27.543,294.236 28.344 C 293.730 29.145,293.188 30.205,293.031 30.700 C 292.875 31.195,292.578 31.600,292.373 31.600 C 292.168 31.600,292.000 31.960,292.000 32.400 C 292.000 32.840,291.820 33.200,291.600 33.200 C 291.380 33.200,291.200 33.560,291.200 34.000 C 291.200 34.440,291.020 34.800,290.800 34.800 C 290.580 34.800,290.400 35.160,290.400 35.600 C 290.400 36.040,290.220 36.400,290.000 36.400 C 289.780 36.400,289.600 36.720,289.600 37.112 C 289.600 37.503,289.240 38.083,288.800 38.400 C 288.360 38.717,288.000 39.297,288.000 39.688 C 288.000 40.080,287.820 40.400,287.600 40.400 C 287.380 40.400,287.200 40.760,287.200 41.200 C 287.200 41.640,287.020 42.000,286.800 42.000 C 286.580 42.000,286.400 42.270,286.400 42.600 C 286.400 42.930,286.220 43.200,286.000 43.200 C 285.780 43.200,285.600 43.614,285.600 44.120 C 285.600 44.626,285.378 45.262,285.107 45.533 C 284.716 45.924,284.799 46.075,285.507 46.260 C 285.998 46.388,286.400 46.652,286.400 46.847 C 286.400 47.041,286.535 47.160,286.700 47.111 C 287.149 46.977,289.600 48.149,289.600 48.498 C 289.600 48.664,289.870 48.800,290.200 48.800 C 290.530 48.800,290.800 48.980,290.800 49.200 C 290.800 49.420,291.070 49.600,291.400 49.600 C 291.730 49.600,292.000 49.780,292.000 50.000 C 292.000 50.220,292.270 50.400,292.600 50.400 C 292.930 50.400,293.200 50.550,293.200 50.732 C 293.200 50.915,293.692 51.320,294.294 51.632 C 294.896 51.945,295.712 52.470,296.107 52.800 C 296.503 53.130,296.959 53.400,297.122 53.400 C 297.285 53.400,297.853 53.805,298.385 54.300 C 298.916 54.795,299.504 55.200,299.692 55.200 C 299.880 55.200,300.420 55.560,300.892 56.000 C 301.364 56.440,301.987 56.800,302.275 56.800 C 302.564 56.800,302.800 56.991,302.800 57.224 C 302.800 57.457,302.947 57.556,303.127 57.445 C 303.307 57.334,303.707 57.593,304.015 58.021 C 304.324 58.450,304.825 58.800,305.128 58.800 C 305.431 58.800,306.183 59.340,306.800 60.000 C 307.417 60.660,308.119 61.200,308.360 61.200 C 308.602 61.200,308.800 61.380,308.800 61.600 C 308.800 61.820,309.100 62.000,309.467 62.000 C 309.833 62.000,310.017 62.117,309.874 62.259 C 309.602 62.531,311.091 64.000,311.639 64.000 C 311.813 64.000,313.024 65.035,314.332 66.300 C 315.639 67.565,317.286 69.050,317.991 69.600 C 319.048 70.423,323.324 74.281,324.513 75.484 C 326.696 77.691,330.000 81.366,330.000 81.587 C 330.000 81.744,331.260 83.152,332.800 84.717 C 334.340 86.281,335.600 87.728,335.600 87.932 C 335.600 88.137,336.320 89.045,337.200 89.952 C 338.080 90.859,338.800 91.692,338.800 91.804 C 338.800 91.916,339.340 92.572,340.000 93.263 C 340.660 93.954,341.200 94.762,341.200 95.059 C 341.200 95.357,341.335 95.604,341.500 95.608 C 341.665 95.612,342.332 96.512,342.983 97.608 C 343.633 98.704,344.308 99.600,344.483 99.600 C 344.657 99.600,344.800 99.836,344.800 100.125 C 344.800 100.413,345.115 101.008,345.500 101.446 C 345.885 101.885,346.426 102.594,346.703 103.022 C 348.067 105.133,349.590 107.431,350.028 108.039 C 350.296 108.411,350.478 108.839,350.432 108.988 C 350.385 109.138,350.719 109.583,351.174 109.977 C 351.628 110.371,352.000 110.988,352.000 111.347 C 352.000 111.706,352.180 112.000,352.400 112.000 C 352.620 112.000,352.800 112.360,352.800 112.800 C 352.800 113.240,352.980 113.600,353.200 113.600 C 353.420 113.600,353.600 113.960,353.600 114.400 C 353.600 114.840,353.780 115.200,354.000 115.200 C 354.220 115.200,354.400 115.481,354.400 115.824 C 354.400 116.167,354.580 116.336,354.800 116.200 C 355.020 116.064,355.200 116.236,355.200 116.582 C 355.200 117.156,355.914 118.714,356.400 119.200 C 356.878 119.678,357.600 121.239,357.600 121.795 C 357.600 122.128,357.780 122.400,358.000 122.400 C 358.220 122.400,358.400 122.730,358.400 123.133 C 358.400 123.537,358.535 124.002,358.700 124.167 C 358.865 124.332,359.007 124.587,359.015 124.733 C 359.031 125.014,360.211 127.714,360.834 128.895 C 361.035 129.277,361.200 129.862,361.200 130.195 C 361.200 130.528,361.347 130.800,361.528 130.800 C 361.708 130.800,362.098 131.692,362.395 132.782 C 362.692 133.872,363.084 134.671,363.267 134.558 C 363.450 134.445,363.600 134.813,363.600 135.376 C 363.600 135.939,363.780 136.400,364.000 136.400 C 364.220 136.400,364.400 136.940,364.400 137.600 C 364.400 138.260,364.580 138.800,364.800 138.800 C 365.020 138.800,365.200 139.250,365.200 139.800 C 365.200 140.350,365.341 140.800,365.513 140.800 C 365.685 140.800,366.057 141.655,366.339 142.700 C 366.622 143.745,367.021 144.913,367.227 145.295 C 367.432 145.677,367.600 146.442,367.600 146.995 C 367.600 147.548,367.780 148.000,368.000 148.000 C 368.220 148.000,368.400 148.452,368.400 149.005 C 368.400 149.558,368.558 150.323,368.751 150.705 C 369.385 151.960,370.000 154.237,370.000 155.328 C 370.000 155.918,370.180 156.400,370.400 156.400 C 370.620 156.400,370.800 157.120,370.800 158.000 C 370.800 158.880,370.980 159.600,371.200 159.600 C 371.420 159.600,371.600 160.320,371.600 161.200 C 371.600 162.080,371.780 162.800,372.000 162.800 C 372.220 162.800,372.400 163.700,372.400 164.800 C 372.400 165.900,372.580 166.800,372.800 166.800 C 373.020 166.800,373.200 167.790,373.200 169.000 C 373.200 170.210,373.380 171.200,373.600 171.200 C 373.822 171.200,374.000 172.267,374.000 173.600 C 374.000 174.920,374.163 176.000,374.361 176.000 C 375.537 176.000,375.547 220.979,374.372 222.180 C 374.167 222.389,374.000 223.604,374.000 224.880 C 374.000 226.160,373.821 227.200,373.600 227.200 C 373.377 227.200,373.200 228.275,373.200 229.624 C 373.200 231.137,373.050 231.954,372.800 231.800 C 372.554 231.648,372.400 232.321,372.400 233.553 C 372.400 234.653,372.220 235.664,372.000 235.800 C 371.780 235.936,371.600 236.656,371.600 237.400 C 371.600 238.144,371.420 238.864,371.200 239.000 C 370.980 239.136,370.800 239.856,370.800 240.600 C 370.800 241.344,370.620 242.064,370.400 242.200 C 370.180 242.336,370.000 242.966,370.000 243.600 C 370.000 244.234,369.820 244.864,369.600 245.000 C 369.380 245.136,369.200 245.856,369.200 246.600 C 369.200 247.344,369.020 248.064,368.800 248.200 C 368.580 248.336,368.400 248.887,368.400 249.424 C 368.400 249.961,368.220 250.400,368.000 250.400 C 367.780 250.400,367.600 250.940,367.600 251.600 C 367.600 252.260,367.420 252.800,367.200 252.800 C 366.980 252.800,366.800 253.340,366.800 254.000 C 366.800 254.660,366.620 255.200,366.400 255.200 C 366.180 255.200,366.000 255.841,366.000 256.624 C 366.000 257.471,365.838 257.947,365.600 257.800 C 365.380 257.664,365.200 257.926,365.200 258.382 C 365.200 258.838,365.034 259.523,364.832 259.905 C 363.955 261.560,362.741 265.197,362.865 265.799 C 363.029 266.595,366.172 268.400,367.395 268.400 C 367.728 268.400,368.000 268.580,368.000 268.800 C 368.000 269.020,368.450 269.200,369.000 269.200 C 369.550 269.200,370.000 269.380,370.000 269.600 C 370.000 269.820,370.360 270.000,370.800 270.000 C 371.240 270.000,371.600 270.141,371.600 270.313 C 371.600 270.485,372.095 270.666,372.700 270.716 C 373.305 270.766,373.860 270.985,373.933 271.203 C 374.007 271.422,374.412 271.600,374.833 271.600 C 375.255 271.600,375.600 271.747,375.600 271.928 C 375.600 272.108,376.500 272.500,377.600 272.800 C 378.700 273.100,379.600 273.500,379.600 273.690 C 379.600 273.880,379.825 274.000,380.100 273.956 C 380.375 273.913,381.269 274.175,382.087 274.539 C 384.221 275.487,386.400 275.429,386.400 274.424 C 386.400 273.997,386.580 273.536,386.800 273.400 C 387.020 273.264,387.200 272.713,387.200 272.176 C 387.200 271.639,387.380 271.200,387.600 271.200 C 387.820 271.200,388.000 270.765,388.000 270.233 C 388.000 269.702,388.135 269.207,388.300 269.133 C 388.821 268.902,391.149 261.560,391.482 259.100 C 391.593 258.275,391.845 257.600,392.042 257.600 C 392.239 257.600,392.400 257.060,392.400 256.400 C 392.400 255.740,392.580 255.200,392.800 255.200 C 393.020 255.200,393.200 254.570,393.200 253.800 C 393.200 253.030,393.380 252.400,393.600 252.400 C 393.820 252.400,394.000 251.770,394.000 251.000 C 394.000 250.230,394.180 249.600,394.400 249.600 C 394.620 249.600,394.800 248.880,394.800 248.000 C 394.800 247.120,394.980 246.400,395.200 246.400 C 395.420 246.400,395.600 245.601,395.600 244.624 C 395.600 243.647,395.780 242.736,396.000 242.600 C 396.220 242.464,396.400 241.643,396.400 240.776 C 396.400 239.909,396.580 239.200,396.800 239.200 C 397.020 239.200,397.200 238.210,397.200 237.000 C 397.200 235.790,397.349 234.800,397.532 234.800 C 397.714 234.800,397.904 233.765,397.954 232.500 C 398.004 231.235,398.215 230.140,398.422 230.067 C 398.630 229.993,398.800 228.724,398.800 227.247 C 398.800 225.754,399.005 224.355,399.260 224.100 C 400.270 223.090,400.167 173.602,399.156 174.227 C 398.960 174.348,398.800 173.103,398.800 171.457 C 398.800 169.812,398.630 168.407,398.422 168.333 C 398.215 168.260,398.004 167.165,397.954 165.900 C 397.904 164.635,397.714 163.600,397.532 163.600 C 397.349 163.600,397.200 162.700,397.200 161.600 C 397.200 160.500,397.020 159.600,396.800 159.600 C 396.580 159.600,396.400 158.790,396.400 157.800 C 396.400 156.810,396.220 156.000,396.000 156.000 C 395.780 156.000,395.600 155.201,395.600 154.224 C 395.600 153.247,395.420 152.336,395.200 152.200 C 394.980 152.064,394.800 151.333,394.800 150.576 C 394.800 149.819,394.620 149.200,394.400 149.200 C 394.180 149.200,394.000 148.570,394.000 147.800 C 394.000 147.030,393.820 146.400,393.600 146.400 C 393.380 146.400,393.200 145.770,393.200 145.000 C 393.200 144.230,393.020 143.600,392.800 143.600 C 392.580 143.600,392.400 143.060,392.400 142.400 C 392.400 141.740,392.220 141.200,392.000 141.200 C 391.780 141.200,391.600 140.581,391.600 139.824 C 391.600 139.067,391.415 138.333,391.189 138.193 C 390.964 138.054,390.813 137.728,390.855 137.470 C 390.956 136.844,390.445 134.772,389.976 133.905 C 389.769 133.523,389.600 132.848,389.600 132.405 C 389.600 131.962,389.464 131.600,389.297 131.600 C 388.966 131.600,388.000 128.776,388.000 127.806 C 388.000 127.473,387.820 127.200,387.600 127.200 C 387.380 127.200,387.200 126.855,387.200 126.433 C 387.200 126.012,387.022 125.607,386.803 125.533 C 386.585 125.460,386.366 124.905,386.316 124.300 C 386.266 123.695,386.085 123.200,385.913 123.200 C 385.741 123.200,385.600 122.840,385.600 122.400 C 385.600 121.960,385.420 121.600,385.200 121.600 C 384.980 121.600,384.800 121.255,384.800 120.833 C 384.800 120.412,384.622 120.007,384.403 119.933 C 384.185 119.860,383.966 119.305,383.916 118.700 C 383.866 118.095,383.685 117.600,383.513 117.600 C 383.341 117.600,383.200 117.240,383.200 116.800 C 383.200 116.360,383.020 116.000,382.800 116.000 C 382.580 116.000,382.400 115.640,382.400 115.200 C 382.400 114.760,382.265 114.399,382.100 114.397 C 381.741 114.393,380.800 112.456,380.800 111.720 C 380.800 111.434,380.620 111.200,380.400 111.200 C 380.180 111.200,380.000 110.840,380.000 110.400 C 380.000 109.960,379.854 109.600,379.675 109.600 C 379.496 109.600,379.102 108.970,378.800 108.200 C 378.498 107.430,378.104 106.800,377.925 106.800 C 377.746 106.800,377.600 106.440,377.600 106.000 C 377.600 105.560,377.420 105.200,377.200 105.200 C 376.980 105.200,376.800 104.840,376.800 104.400 C 376.800 103.960,376.620 103.600,376.400 103.600 C 376.180 103.600,376.000 103.240,376.000 102.800 C 376.000 102.360,375.820 102.000,375.600 102.000 C 375.380 102.000,375.200 101.651,375.200 101.224 C 375.200 100.797,375.032 100.343,374.826 100.216 C 374.620 100.089,373.976 99.014,373.396 97.827 C 372.815 96.641,371.994 95.356,371.570 94.973 C 371.147 94.590,370.800 93.984,370.800 93.626 C 370.800 93.269,370.440 92.717,370.000 92.400 C 369.560 92.083,369.200 91.503,369.200 91.112 C 369.200 90.720,369.050 90.400,368.868 90.400 C 368.685 90.400,368.280 89.905,367.968 89.300 C 367.655 88.695,367.085 87.851,366.700 87.425 C 366.315 86.998,366.000 86.453,366.000 86.213 C 366.000 85.973,365.640 85.517,365.200 85.200 C 364.760 84.883,364.400 84.293,364.400 83.888 C 364.400 83.484,364.220 83.264,364.000 83.400 C 363.780 83.536,363.600 83.367,363.600 83.024 C 363.600 82.681,363.432 82.400,363.227 82.400 C 363.022 82.400,362.750 82.074,362.624 81.675 C 362.497 81.276,361.765 80.263,360.997 79.424 C 360.229 78.586,359.600 77.641,359.600 77.326 C 359.600 77.011,359.420 76.864,359.200 77.000 C 358.980 77.136,358.800 76.967,358.800 76.624 C 358.800 76.281,358.620 76.000,358.400 76.000 C 358.180 76.000,358.000 75.812,358.000 75.583 C 358.000 75.159,357.633 74.651,356.191 73.081 C 355.747 72.596,354.941 71.570,354.401 70.800 C 353.861 70.030,352.380 68.375,351.110 67.122 C 349.839 65.869,348.800 64.725,348.800 64.580 C 348.800 64.077,346.888 62.045,346.644 62.289 C 346.510 62.423,346.400 62.315,346.400 62.048 C 346.400 61.566,344.614 59.564,344.342 59.742 C 344.264 59.794,343.266 58.883,342.124 57.718 C 340.982 56.553,340.133 55.600,340.237 55.600 C 340.341 55.600,339.797 54.970,339.027 54.200 C 338.257 53.430,337.484 52.800,337.310 52.800 C 337.135 52.800,336.768 52.440,336.493 52.000 C 336.218 51.560,335.809 51.200,335.584 51.200 C 335.359 51.200,334.113 50.141,332.814 48.846 C 331.516 47.551,329.856 46.070,329.126 45.555 C 328.397 45.039,327.404 44.253,326.919 43.809 C 325.242 42.269,324.831 42.000,324.150 42.000 C 323.774 42.000,323.583 41.883,323.726 41.740 C 324.023 41.443,322.011 39.601,321.388 39.600 C 321.162 39.600,320.717 39.240,320.400 38.800 C 320.083 38.360,319.583 38.000,319.288 38.000 C 318.994 38.000,318.864 37.820,319.000 37.600 C 319.136 37.380,318.916 37.200,318.512 37.200 C 318.107 37.200,317.517 36.840,317.200 36.400 C 316.883 35.960,316.455 35.600,316.249 35.600 C 316.044 35.600,315.274 35.141,314.538 34.580 C 313.802 34.018,313.200 33.686,313.200 33.841 C 313.200 33.996,312.864 33.735,312.453 33.261 C 312.042 32.788,311.502 32.400,311.253 32.400 C 311.004 32.400,310.800 32.220,310.800 32.000 C 310.800 31.780,310.613 31.600,310.384 31.600 C 310.021 31.600,307.758 30.173,307.200 29.592 C 307.090 29.477,306.550 29.164,306.000 28.895 C 304.991 28.401,304.267 27.968,302.357 26.712 C 301.781 26.333,301.224 26.109,301.119 26.214 C 301.014 26.319,300.602 26.044,300.202 25.602 C 299.803 25.161,299.144 24.800,298.738 24.800 C 298.332 24.800,298.000 24.620,298.000 24.400 C 298.000 23.748,296.975 23.944,296.262 24.731 M258.040 47.876 C 258.018 48.578,258.180 49.264,258.400 49.400 C 258.860 49.684,258.860 49.036,258.400 47.600 C 258.094 46.645,258.078 46.657,258.040 47.876 M258.154 69.377 C 258.032 69.694,258.003 70.279,258.089 70.677 C 258.187 71.128,258.324 70.912,258.454 70.100 C 258.671 68.738,258.530 68.396,258.154 69.377 M188.615 164.489 C 188.502 164.990,188.341 167.470,188.258 170.000 C 188.058 176.087,187.190 179.958,184.432 187.071 C 182.747 191.418,178.702 199.315,176.753 202.062 C 176.339 202.646,176.000 203.321,176.000 203.562 C 176.000 203.803,175.820 204.000,175.600 204.000 C 175.380 204.000,175.200 204.236,175.200 204.525 C 175.200 204.813,174.840 205.436,174.400 205.908 C 173.960 206.380,173.598 206.909,173.595 207.083 C 173.592 207.257,173.231 207.850,172.794 208.400 C 172.357 208.950,170.746 211.092,169.215 213.160 C 164.074 220.104,154.807 229.843,148.800 234.614 C 147.150 235.925,145.710 237.096,145.600 237.218 C 145.490 237.339,144.770 237.875,144.000 238.408 C 143.230 238.942,142.251 239.698,141.825 240.089 C 141.398 240.480,140.813 240.800,140.525 240.800 C 140.236 240.800,140.000 240.950,140.000 241.132 C 140.000 241.315,139.505 241.720,138.900 242.032 C 138.295 242.345,137.451 242.915,137.025 243.300 C 136.598 243.685,136.013 244.000,135.725 244.000 C 135.436 244.000,135.200 244.159,135.200 244.353 C 135.200 244.548,134.885 244.810,134.500 244.936 C 134.115 245.062,132.900 245.709,131.800 246.374 C 126.958 249.303,117.363 253.422,112.000 254.874 C 108.004 255.956,104.390 256.757,101.800 257.133 C 100.700 257.293,99.552 257.579,99.248 257.768 C 98.945 257.957,92.420 258.091,84.748 258.065 L 70.800 258.019 70.800 269.810 L 70.800 281.600 76.700 281.647 C 79.945 281.673,82.735 281.673,82.900 281.647 C 83.065 281.621,83.200 281.773,83.200 281.984 C 83.200 282.481,94.313 282.465,94.620 281.968 C 94.745 281.765,96.536 281.600,98.600 281.600 C 100.670 281.600,102.464 281.421,102.600 281.200 C 102.736 280.980,103.996 280.800,105.400 280.800 C 106.804 280.800,108.064 280.620,108.200 280.400 C 108.336 280.180,109.326 280.000,110.400 280.000 C 111.474 280.000,112.464 279.820,112.600 279.600 C 112.736 279.380,113.477 279.200,114.247 279.200 C 115.079 279.200,115.547 279.038,115.400 278.800 C 115.249 278.556,115.855 278.400,116.953 278.400 C 117.943 278.400,118.864 278.220,119.000 278.000 C 119.136 277.780,119.777 277.600,120.424 277.600 C 121.071 277.600,121.600 277.464,121.600 277.297 C 121.600 276.966,124.424 276.000,125.394 276.000 C 125.727 276.000,126.000 275.844,126.000 275.653 C 126.000 275.462,126.734 275.207,127.631 275.087 C 128.528 274.966,129.563 274.606,129.931 274.286 C 130.299 273.966,130.825 273.786,131.100 273.886 C 131.375 273.985,131.600 273.861,131.600 273.610 C 131.600 273.358,131.765 273.255,131.968 273.380 C 132.170 273.505,132.575 273.381,132.868 273.104 C 133.160 272.827,133.850 272.538,134.400 272.462 C 134.950 272.386,135.460 272.161,135.533 271.962 C 135.607 271.763,136.012 271.600,136.433 271.600 C 136.855 271.600,137.200 271.420,137.200 271.200 C 137.200 270.980,137.571 270.800,138.024 270.800 C 138.477 270.800,138.736 270.620,138.600 270.400 C 138.464 270.180,138.678 269.996,139.076 269.991 C 139.474 269.986,140.250 269.630,140.800 269.200 C 141.350 268.770,142.038 268.414,142.329 268.409 C 142.619 268.404,143.129 268.128,143.461 267.796 C 143.793 267.464,144.230 267.295,144.432 267.420 C 144.635 267.545,144.800 267.457,144.800 267.224 C 144.800 266.991,145.081 266.800,145.424 266.800 C 145.767 266.800,145.936 266.620,145.800 266.400 C 145.664 266.180,145.879 266.000,146.279 266.000 C 146.701 266.000,147.227 265.497,147.537 264.797 C 147.994 263.764,150.040 262.149,154.370 259.400 C 154.716 259.180,155.090 258.901,155.200 258.781 C 155.310 258.660,156.030 258.129,156.800 257.600 C 157.570 257.071,158.290 256.537,158.400 256.414 C 158.510 256.290,159.590 255.382,160.800 254.395 C 167.056 249.293,173.770 242.897,177.600 238.392 C 178.810 236.969,180.133 235.443,180.541 235.002 C 180.948 234.561,182.475 232.670,183.934 230.800 C 185.393 228.930,186.809 227.168,187.079 226.885 C 187.350 226.602,187.887 225.837,188.272 225.185 C 188.657 224.533,189.114 224.000,189.286 224.000 C 189.459 224.000,189.600 223.764,189.600 223.475 C 189.600 223.187,189.960 222.564,190.400 222.092 C 190.840 221.620,191.200 221.046,191.200 220.817 C 191.200 220.588,191.380 220.400,191.600 220.400 C 191.820 220.400,192.000 220.130,192.000 219.800 C 192.000 219.470,192.180 219.200,192.400 219.200 C 192.620 219.200,192.800 218.930,192.800 218.600 C 192.800 218.270,192.980 218.000,193.200 218.000 C 193.420 218.000,193.600 217.730,193.600 217.400 C 193.600 217.070,193.780 216.800,194.000 216.800 C 194.220 216.800,194.400 216.633,194.400 216.428 C 194.400 216.084,197.557 210.817,199.265 208.312 C 199.968 207.280,200.002 206.095,199.903 185.512 L 199.800 163.800 194.310 163.689 C 188.883 163.579,188.819 163.588,188.615 164.489 M305.449 281.920 C 305.341 282.096,305.678 282.240,306.200 282.240 C 306.722 282.240,307.059 282.096,306.951 281.920 C 306.842 281.744,306.504 281.600,306.200 281.600 C 305.896 281.600,305.558 281.744,305.449 281.920 M42.200 304.800 C 42.358 305.055,41.164 305.200,38.904 305.200 C 36.623 305.200,35.168 305.378,34.821 305.700 C 34.390 306.100,34.339 306.100,34.565 305.700 C 34.720 305.425,34.657 305.200,34.424 305.200 C 34.191 305.200,34.000 305.380,34.000 305.600 C 34.000 305.822,32.933 306.000,31.600 306.000 C 29.950 306.000,29.198 306.156,29.194 306.500 C 29.190 306.833,29.058 306.800,28.800 306.400 C 28.542 306.000,28.410 305.967,28.406 306.300 C 28.402 306.644,27.644 306.800,25.971 306.800 C 22.673 306.800,22.400 307.143,22.400 311.291 C 22.400 313.133,22.562 314.811,22.759 315.020 C 23.121 315.403,23.453 317.242,23.855 321.101 C 23.976 322.256,24.237 323.100,24.437 322.977 C 24.637 322.854,24.800 323.483,24.800 324.376 C 24.800 325.269,24.955 326.000,25.145 326.000 C 25.335 326.000,25.436 326.490,25.370 327.090 C 25.305 327.689,25.456 328.427,25.707 328.729 C 25.959 329.032,26.125 329.790,26.078 330.414 C 26.030 331.037,26.173 331.660,26.396 331.797 C 26.618 331.935,26.800 332.466,26.800 332.978 C 26.800 333.490,27.061 334.411,27.380 335.026 C 27.698 335.640,27.868 336.291,27.756 336.471 C 27.644 336.652,27.743 336.800,27.976 336.800 C 28.209 336.800,28.400 337.155,28.400 337.588 C 28.400 338.021,28.760 339.017,29.200 339.800 C 29.640 340.583,30.000 341.679,30.000 342.236 C 30.000 342.808,30.174 343.140,30.400 343.000 C 30.627 342.860,30.800 343.196,30.800 343.776 C 30.800 344.339,30.951 344.800,31.136 344.800 C 31.321 344.800,31.718 345.565,32.019 346.500 C 32.320 347.435,33.075 349.100,33.696 350.200 C 34.318 351.300,35.226 353.010,35.714 354.000 C 36.201 354.990,36.870 356.019,37.200 356.287 C 37.530 356.555,37.631 356.780,37.424 356.787 C 37.216 356.794,37.351 357.025,37.724 357.300 C 38.418 357.814,39.838 360.055,40.258 361.300 C 40.387 361.685,40.652 362.000,40.847 362.000 C 41.041 362.000,41.200 362.283,41.200 362.629 C 41.200 362.974,41.425 363.499,41.700 363.794 C 42.857 365.036,44.193 366.974,44.100 367.275 C 44.045 367.454,44.276 367.600,44.613 367.600 C 44.949 367.600,45.346 367.915,45.493 368.300 C 45.640 368.685,46.130 369.329,46.581 369.730 C 47.031 370.132,47.130 370.337,46.800 370.186 C 46.470 370.035,47.616 371.326,49.347 373.056 L 52.493 376.200 126.247 376.303 L 200.000 376.406 200.000 373.171 L 200.000 369.935 196.302 365.668 C 192.163 360.891,187.086 355.767,181.763 350.995 C 179.803 349.238,177.930 347.528,177.600 347.196 C 177.270 346.863,176.341 346.101,175.535 345.502 C 174.729 344.902,173.829 344.183,173.535 343.903 C 172.411 342.832,165.228 337.594,161.400 335.053 C 159.200 333.594,157.211 332.264,156.980 332.100 C 156.544 331.789,155.609 331.241,153.400 330.000 C 152.690 329.601,151.680 329.033,151.155 328.738 C 150.630 328.442,150.110 328.110,150.000 328.000 C 148.852 326.852,135.357 320.454,128.861 317.978 C 125.356 316.642,124.242 316.038,123.971 315.324 C 123.764 314.779,123.288 314.400,122.810 314.400 C 122.364 314.400,122.000 314.220,122.000 314.000 C 122.000 313.780,121.550 313.600,121.000 313.600 C 120.450 313.600,120.000 313.459,120.000 313.287 C 120.000 313.115,119.505 312.934,118.900 312.884 C 118.295 312.834,117.740 312.615,117.667 312.397 C 117.593 312.178,117.038 312.000,116.433 312.000 C 115.828 312.000,115.207 311.873,115.052 311.718 C 114.897 311.563,114.286 311.372,113.695 311.292 C 113.104 311.213,112.435 311.003,112.210 310.825 C 111.823 310.519,108.918 309.959,106.860 309.795 C 106.344 309.753,105.804 309.546,105.660 309.334 C 105.517 309.123,104.802 308.968,104.072 308.991 C 103.342 309.014,102.656 308.891,102.548 308.717 C 102.441 308.542,101.733 308.400,100.976 308.400 C 100.219 308.400,99.600 308.220,99.600 308.000 C 99.600 307.780,98.700 307.600,97.600 307.600 C 96.454 307.600,95.600 307.418,95.600 307.175 C 95.600 306.941,95.285 306.782,94.900 306.821 C 93.160 306.998,90.373 306.768,90.561 306.463 C 90.676 306.277,89.562 306.087,88.085 306.040 C 86.608 305.994,85.340 305.786,85.267 305.578 C 85.193 305.370,83.438 305.200,81.367 305.200 C 79.122 305.200,77.600 305.038,77.600 304.800 C 77.600 304.539,71.392 304.400,59.776 304.400 C 47.996 304.400,42.037 304.536,42.200 304.800 " stroke="none" fill="#f0ebc0" fill-rule="evenodd"></path><path id="path4" d="M200.000 70.184 L 200.000 140.491 198.700 140.245 C 197.985 140.110,196.270 139.885,194.889 139.744 C 193.508 139.604,192.283 139.334,192.166 139.144 C 192.049 138.955,191.434 138.800,190.800 138.800 C 190.166 138.800,189.536 138.620,189.400 138.400 C 189.264 138.180,188.801 138.000,188.371 138.000 C 187.941 138.000,187.277 137.843,186.895 137.651 C 182.063 135.226,180.595 134.406,178.200 132.794 C 174.046 129.997,170.145 126.428,166.402 122.000 C 164.107 119.284,163.619 118.816,163.068 118.806 C 162.676 118.799,164.092 120.405,169.000 125.533 C 185.068 142.321,204.190 145.189,221.800 133.451 C 225.465 131.008,232.826 124.193,235.000 121.230 C 235.660 120.331,236.605 119.486,237.100 119.354 C 237.595 119.222,238.000 118.977,238.000 118.811 C 238.000 118.645,238.438 118.071,238.973 117.536 C 239.508 117.001,240.003 116.302,240.073 115.982 C 240.143 115.662,240.470 115.130,240.800 114.800 C 241.130 114.470,241.456 113.941,241.525 113.625 C 241.594 113.309,241.999 112.748,242.425 112.378 C 242.851 112.009,243.200 111.500,243.200 111.248 C 243.200 110.607,244.067 109.132,244.900 108.357 C 245.285 107.999,245.600 107.452,245.600 107.142 C 245.600 106.832,245.844 106.223,246.141 105.789 C 247.268 104.146,248.800 101.149,248.800 100.586 C 248.800 100.264,248.980 100.000,249.200 100.000 C 249.420 100.000,249.600 99.640,249.600 99.200 C 249.600 98.760,249.780 98.400,250.000 98.400 C 250.220 98.400,250.400 97.950,250.400 97.400 C 250.400 96.850,250.591 96.400,250.824 96.400 C 251.057 96.400,251.145 96.235,251.020 96.032 C 250.895 95.830,251.064 95.393,251.396 95.061 C 251.728 94.729,252.000 94.009,252.000 93.462 C 252.000 92.915,252.178 92.407,252.397 92.333 C 252.615 92.260,252.834 91.705,252.884 91.100 C 252.934 90.495,253.115 90.000,253.287 90.000 C 253.459 90.000,253.600 89.651,253.600 89.224 C 253.600 88.797,253.780 88.336,254.000 88.200 C 254.220 88.064,254.400 87.423,254.400 86.776 C 254.400 86.129,254.580 85.600,254.800 85.600 C 255.020 85.600,255.200 84.959,255.200 84.176 C 255.200 83.393,255.360 82.852,255.557 82.973 C 255.753 83.094,256.022 82.520,256.154 81.697 C 256.287 80.874,256.502 79.660,256.633 79.000 C 256.764 78.340,256.885 77.575,256.902 77.300 C 256.919 77.025,257.067 76.800,257.229 76.800 C 257.392 76.800,257.654 75.087,257.811 72.994 C 257.968 70.901,258.254 69.090,258.448 68.970 C 258.904 68.689,258.910 49.715,258.454 49.434 C 258.264 49.316,258.004 48.001,257.875 46.510 C 257.630 43.679,257.512 43.039,257.030 41.931 C 256.869 41.563,256.697 40.984,256.647 40.643 C 256.597 40.302,256.431 39.898,256.278 39.745 C 256.125 39.592,256.000 39.057,256.000 38.557 C 256.000 38.057,255.820 37.536,255.600 37.400 C 255.380 37.264,255.200 36.885,255.200 36.557 C 255.200 36.229,254.840 35.216,254.400 34.306 C 253.960 33.395,253.600 32.433,253.600 32.168 C 253.600 31.903,253.319 31.578,252.975 31.446 C 252.631 31.314,252.461 31.024,252.598 30.803 C 252.735 30.581,252.671 30.400,252.455 30.400 C 252.239 30.400,251.858 29.782,251.609 29.026 C 251.359 28.270,251.030 27.595,250.878 27.526 C 250.484 27.347,248.800 24.898,248.800 24.505 C 248.800 24.324,248.440 23.917,248.000 23.600 C 247.560 23.283,247.200 22.803,247.200 22.535 C 247.200 21.763,235.747 10.400,234.969 10.400 C 234.847 10.400,234.157 9.950,233.436 9.400 C 232.714 8.850,231.893 8.400,231.609 8.400 C 231.326 8.400,230.758 8.012,230.347 7.539 C 229.905 7.030,229.600 6.891,229.600 7.200 C 229.600 7.509,229.295 7.370,228.853 6.861 C 228.442 6.388,227.812 6.000,227.453 6.000 C 227.094 6.000,226.800 5.820,226.800 5.600 C 226.800 5.380,226.535 5.200,226.212 5.200 C 225.889 5.200,224.983 4.840,224.200 4.400 C 223.417 3.960,222.411 3.600,221.964 3.600 C 221.518 3.600,221.264 3.420,221.400 3.200 C 221.544 2.967,221.137 2.800,220.424 2.800 C 219.751 2.800,219.200 2.620,219.200 2.400 C 219.200 2.180,218.660 2.000,218.000 2.000 C 217.340 2.000,216.800 1.820,216.800 1.600 C 216.800 1.380,216.095 1.200,215.233 1.200 C 214.372 1.200,213.603 1.009,213.525 0.776 C 213.438 0.513,210.846 0.262,206.692 0.115 L 200.000 -0.123 200.000 70.184 M188.406 163.900 C 188.411 164.413,188.499 164.463,188.737 164.088 C 188.981 163.704,190.404 163.604,194.431 163.688 L 199.800 163.800 199.903 185.512 C 200.002 206.095,199.968 207.280,199.265 208.312 C 197.557 210.817,194.400 216.084,194.400 216.428 C 194.400 216.633,194.220 216.800,194.000 216.800 C 193.780 216.800,193.600 217.070,193.600 217.400 C 193.600 217.730,193.420 218.000,193.200 218.000 C 192.980 218.000,192.800 218.270,192.800 218.600 C 192.800 218.930,192.620 219.200,192.400 219.200 C 192.180 219.200,192.000 219.470,192.000 219.800 C 192.000 220.130,191.820 220.400,191.600 220.400 C 191.380 220.400,191.200 220.588,191.200 220.817 C 191.200 221.046,190.840 221.620,190.400 222.092 C 189.960 222.564,189.600 223.187,189.600 223.475 C 189.600 223.764,189.459 224.000,189.286 224.000 C 189.114 224.000,188.657 224.533,188.272 225.185 C 187.887 225.837,187.350 226.602,187.079 226.885 C 186.809 227.168,185.393 228.930,183.934 230.800 C 182.475 232.670,180.948 234.561,180.541 235.002 C 180.133 235.443,178.810 236.969,177.600 238.392 C 173.770 242.897,167.056 249.293,160.800 254.395 C 159.590 255.382,158.510 256.290,158.400 256.414 C 158.290 256.537,157.570 257.071,156.800 257.600 C 156.030 258.129,155.310 258.660,155.200 258.781 C 155.090 258.901,154.716 259.180,154.370 259.400 C 150.786 261.675,148.102 263.698,147.650 264.466 C 147.125 265.358,147.152 265.353,148.250 264.356 C 148.882 263.782,150.570 262.538,152.000 261.591 C 160.600 255.900,171.318 246.361,178.734 237.800 C 180.639 235.600,182.296 233.710,182.416 233.600 C 184.296 231.868,193.711 218.436,197.358 212.280 C 199.938 207.927,200.055 207.875,201.548 210.438 C 203.959 214.578,205.077 216.383,207.343 219.800 C 209.483 223.026,213.839 229.083,214.391 229.600 C 214.508 229.710,215.078 230.430,215.658 231.200 C 216.237 231.970,217.181 233.140,217.755 233.800 C 218.330 234.460,219.565 235.938,220.500 237.084 C 225.952 243.766,239.029 255.471,247.472 261.226 C 249.711 262.753,251.891 264.444,252.316 264.984 C 252.741 265.524,253.564 266.183,254.144 266.447 C 254.725 266.712,255.200 267.080,255.200 267.264 C 255.200 267.449,255.453 267.600,255.762 267.600 C 256.428 267.600,259.741 269.268,259.933 269.700 C 260.007 269.865,260.412 270.000,260.833 270.000 C 261.255 270.000,261.600 270.151,261.600 270.336 C 261.600 270.521,262.314 270.908,263.187 271.196 C 264.059 271.484,264.679 271.872,264.563 272.060 C 264.447 272.247,264.600 272.400,264.901 272.400 C 265.203 272.400,266.198 272.762,267.113 273.204 C 268.028 273.646,268.917 273.968,269.089 273.919 C 269.260 273.870,269.781 274.042,270.247 274.301 C 270.713 274.560,271.208 274.658,271.347 274.519 C 271.486 274.380,271.600 274.477,271.600 274.733 C 271.600 274.990,272.129 275.200,272.776 275.200 C 273.423 275.200,274.042 275.344,274.151 275.521 C 274.260 275.697,275.261 276.090,276.375 276.393 C 277.489 276.696,278.400 277.092,278.400 277.272 C 278.400 277.453,278.904 277.600,279.520 277.600 C 280.136 277.600,280.882 277.825,281.179 278.100 C 281.616 278.506,281.658 278.488,281.400 278.000 C 281.142 277.512,281.184 277.494,281.621 277.900 C 281.918 278.175,282.574 278.400,283.080 278.400 C 283.586 278.400,284.000 278.580,284.000 278.800 C 284.000 279.020,284.799 279.200,285.776 279.200 C 286.753 279.200,287.664 279.380,287.800 279.600 C 287.936 279.820,288.947 280.000,290.047 280.000 C 291.147 280.000,291.955 280.150,291.842 280.332 C 291.729 280.515,292.659 280.706,293.910 280.757 C 295.160 280.807,296.277 280.995,296.391 281.174 C 296.506 281.353,298.485 281.533,300.789 281.574 C 303.319 281.619,305.210 281.837,305.565 282.124 C 306.026 282.497,306.088 282.491,305.853 282.100 C 305.666 281.789,305.779 281.600,306.153 281.600 C 306.483 281.600,306.871 281.792,307.016 282.026 C 307.328 282.531,316.800 282.437,316.800 281.929 C 316.800 281.748,316.935 281.621,317.100 281.647 C 317.265 281.673,320.055 281.673,323.300 281.647 L 329.200 281.600 329.200 269.700 L 329.201 257.800 322.900 257.788 C 319.435 257.782,315.520 257.556,314.200 257.286 C 312.880 257.017,310.900 256.609,309.800 256.380 C 305.728 255.532,303.762 255.154,302.297 254.937 C 301.471 254.815,300.695 254.555,300.574 254.358 C 300.452 254.161,299.922 254.000,299.395 254.000 C 298.869 254.000,298.024 253.839,297.519 253.642 C 297.013 253.445,295.790 253.067,294.800 252.803 C 293.810 252.538,292.687 252.160,292.305 251.961 C 291.923 251.762,291.246 251.600,290.800 251.600 C 290.354 251.600,289.677 251.429,289.295 251.219 C 288.913 251.009,287.430 250.457,286.000 249.993 C 284.570 249.528,282.995 248.979,282.500 248.774 C 282.005 248.568,281.150 248.220,280.600 248.000 C 275.636 246.015,273.348 244.988,268.800 242.707 C 263.704 240.150,261.423 238.866,258.928 237.150 C 258.008 236.518,257.161 236.000,257.046 236.000 C 256.449 236.000,248.645 230.182,244.400 226.574 C 240.638 223.377,234.736 217.396,231.990 214.000 C 231.012 212.790,230.117 211.710,230.003 211.600 C 227.267 208.966,219.074 194.943,216.682 188.800 C 216.468 188.250,216.146 187.440,215.967 187.000 C 215.788 186.560,215.248 184.940,214.768 183.400 C 214.288 181.860,213.751 180.240,213.575 179.800 C 213.399 179.360,213.144 178.370,213.009 177.600 C 212.874 176.830,212.585 175.210,212.367 174.000 C 212.149 172.790,211.867 169.865,211.741 167.500 L 211.512 163.200 199.956 163.200 C 189.215 163.200,188.400 163.249,188.406 163.900 M188.068 171.200 C 188.026 171.750,187.891 172.920,187.769 173.800 C 187.592 175.079,187.638 175.259,187.996 174.697 C 188.242 174.310,188.376 173.140,188.294 172.097 C 188.212 171.053,188.110 170.650,188.068 171.200 M187.045 177.200 C 186.528 179.585,185.091 184.180,184.737 184.580 C 184.551 184.789,184.400 185.196,184.400 185.484 C 184.400 186.084,183.432 188.322,181.065 193.200 C 167.552 221.041,140.114 245.644,113.400 253.874 C 108.138 255.494,108.044 255.531,109.081 255.568 C 109.566 255.586,110.376 255.439,110.881 255.242 C 111.387 255.045,112.610 254.647,113.600 254.358 C 118.411 252.955,127.542 248.949,131.800 246.374 C 132.900 245.709,134.115 245.062,134.500 244.936 C 134.885 244.810,135.200 244.548,135.200 244.353 C 135.200 244.159,135.436 244.000,135.725 244.000 C 136.013 244.000,136.598 243.685,137.025 243.300 C 137.451 242.915,138.295 242.345,138.900 242.032 C 139.505 241.720,140.000 241.315,140.000 241.132 C 140.000 240.950,140.236 240.800,140.525 240.800 C 140.813 240.800,141.398 240.480,141.825 240.089 C 142.251 239.698,143.230 238.942,144.000 238.408 C 144.770 237.875,145.490 237.339,145.600 237.218 C 145.710 237.096,147.150 235.925,148.800 234.614 C 154.807 229.843,164.074 220.104,169.215 213.160 C 170.746 211.092,172.357 208.950,172.794 208.400 C 173.231 207.850,173.592 207.257,173.595 207.083 C 173.598 206.909,173.960 206.380,174.400 205.908 C 174.840 205.436,175.200 204.813,175.200 204.525 C 175.200 204.236,175.380 204.000,175.600 204.000 C 175.820 204.000,176.000 203.803,176.000 203.562 C 176.000 203.321,176.339 202.646,176.753 202.062 C 180.979 196.104,188.096 179.158,187.499 176.475 C 187.412 176.086,187.220 176.394,187.045 177.200 M105.600 256.000 C 104.620 256.314,104.624 256.321,105.800 256.354 C 106.460 256.373,107.270 256.213,107.600 256.000 C 108.358 255.510,107.130 255.510,105.600 256.000 M100.634 256.865 C 99.553 257.072,97.033 257.393,95.034 257.580 L 91.400 257.919 95.400 257.797 C 99.644 257.669,103.788 257.146,104.253 256.680 C 104.617 256.316,103.104 256.393,100.634 256.865 M74.120 257.898 C 76.055 257.972,79.115 257.971,80.920 257.897 C 82.724 257.823,81.140 257.763,77.400 257.764 C 73.660 257.764,72.184 257.825,74.120 257.898 M87.107 258.290 C 87.826 258.379,88.906 258.377,89.507 258.286 C 90.108 258.195,89.520 258.122,88.200 258.124 C 86.880 258.126,86.388 258.201,87.107 258.290 M326.605 304.791 C 326.462 305.023,324.716 305.200,322.576 305.200 C 320.325 305.200,318.800 305.362,318.800 305.600 C 318.800 305.820,318.609 306.000,318.376 306.000 C 318.143 306.000,318.080 305.775,318.235 305.500 C 318.461 305.100,318.410 305.100,317.979 305.500 C 317.648 305.807,316.274 306.002,314.420 306.006 C 312.322 306.010,311.583 306.131,312.000 306.400 C 312.418 306.670,311.720 306.790,309.700 306.794 C 308.037 306.797,306.800 306.971,306.800 307.200 C 306.800 307.420,305.900 307.600,304.800 307.600 C 303.700 307.600,302.800 307.780,302.800 308.000 C 302.800 308.220,301.930 308.400,300.867 308.400 C 299.803 308.400,298.812 308.521,298.664 308.670 C 298.516 308.818,297.991 308.978,297.497 309.025 C 297.004 309.072,296.150 309.223,295.600 309.360 C 295.050 309.496,294.075 309.704,293.434 309.822 C 292.792 309.939,292.107 310.134,291.911 310.255 C 291.715 310.376,291.160 310.526,290.677 310.588 C 289.455 310.745,287.551 311.204,286.600 311.571 C 284.032 312.563,282.900 312.882,282.078 312.846 C 281.562 312.823,281.264 312.980,281.402 313.203 C 281.543 313.432,281.140 313.600,280.447 313.600 C 279.787 313.600,279.136 313.780,279.000 314.000 C 278.864 314.220,278.326 314.400,277.805 314.400 C 277.271 314.400,276.515 314.836,276.071 315.400 C 275.639 315.950,274.993 316.400,274.637 316.400 C 274.281 316.400,273.677 316.559,273.295 316.753 C 272.913 316.948,272.150 317.290,271.600 317.513 C 271.050 317.737,269.747 318.298,268.704 318.760 C 267.662 319.222,266.705 319.600,266.579 319.600 C 265.673 319.600,252.403 326.296,246.876 329.543 C 244.387 331.004,242.041 332.380,241.662 332.600 C 240.610 333.211,233.880 337.717,233.200 338.266 C 232.870 338.533,231.250 339.760,229.600 340.994 C 221.494 347.055,210.327 357.422,202.664 366.000 L 199.984 369.000 197.706 366.400 C 191.296 359.086,179.786 348.150,172.400 342.356 C 167.174 338.256,154.571 329.600,153.829 329.600 C 153.748 329.600,152.538 328.907,151.141 328.061 C 148.370 326.383,138.946 321.650,134.800 319.854 C 132.317 318.778,131.673 318.509,129.400 317.600 C 126.857 316.583,126.122 316.262,125.049 315.699 C 124.128 315.215,123.934 315.203,124.079 315.638 C 124.179 315.936,126.619 317.105,129.502 318.235 C 132.384 319.365,135.971 320.865,137.472 321.569 C 142.111 323.746,149.579 327.579,150.000 328.000 C 150.110 328.110,150.630 328.442,151.155 328.738 C 151.680 329.033,152.690 329.601,153.400 330.000 C 155.609 331.241,156.544 331.789,156.980 332.100 C 157.211 332.264,159.200 333.594,161.400 335.053 C 165.228 337.594,172.411 342.832,173.535 343.903 C 173.829 344.183,174.729 344.902,175.535 345.502 C 176.341 346.101,177.270 346.863,177.600 347.196 C 177.930 347.528,179.803 349.238,181.763 350.995 C 187.086 355.767,192.163 360.891,196.302 365.668 L 200.000 369.935 200.000 373.168 L 200.000 376.400 273.539 376.400 C 353.343 376.400,348.800 376.515,348.800 374.501 C 348.800 374.279,349.520 373.465,350.400 372.694 C 351.280 371.922,352.000 371.091,352.000 370.846 C 352.000 370.601,352.180 370.400,352.400 370.400 C 352.620 370.400,352.800 370.196,352.800 369.947 C 352.800 369.698,353.124 369.203,353.520 368.847 C 353.917 368.491,354.543 367.550,354.913 366.755 C 355.283 365.960,355.857 365.085,356.188 364.810 C 356.520 364.535,356.693 364.150,356.572 363.955 C 356.451 363.760,356.522 363.600,356.728 363.600 C 356.934 363.600,357.327 363.060,357.600 362.400 C 357.873 361.740,358.255 361.200,358.449 361.200 C 358.642 361.200,358.800 360.739,358.800 360.176 C 358.800 359.505,358.959 359.251,359.262 359.438 C 359.516 359.595,359.626 359.561,359.507 359.362 C 359.231 358.899,360.602 356.336,360.944 356.677 C 361.085 356.818,361.200 356.487,361.200 355.942 C 361.200 355.397,361.560 354.564,362.000 354.092 C 362.440 353.620,362.800 352.855,362.800 352.393 C 362.800 351.931,362.980 351.664,363.200 351.800 C 363.420 351.936,363.600 351.687,363.600 351.247 C 363.600 350.807,363.780 350.336,364.000 350.200 C 364.220 350.064,364.400 349.609,364.400 349.189 C 364.400 348.768,364.760 347.783,365.200 347.000 C 365.640 346.217,366.000 345.301,366.000 344.964 C 366.000 344.628,366.180 344.464,366.400 344.600 C 366.633 344.744,366.800 344.337,366.800 343.624 C 366.800 342.951,366.980 342.400,367.200 342.400 C 367.420 342.400,367.600 342.154,367.600 341.853 C 367.600 341.553,367.979 340.338,368.443 339.153 C 368.907 337.969,369.424 336.640,369.592 336.200 C 369.760 335.760,370.469 333.600,371.167 331.400 C 371.865 329.200,372.594 327.040,372.787 326.600 C 373.184 325.695,373.712 323.721,373.816 322.754 C 373.854 322.399,374.012 321.905,374.165 321.656 C 374.496 321.122,374.813 319.900,375.088 318.100 C 375.198 317.385,375.448 316.800,375.644 316.800 C 375.840 316.800,376.000 316.170,376.000 315.400 C 376.000 314.630,376.180 314.000,376.400 314.000 C 376.620 314.000,376.800 313.269,376.800 312.376 C 376.800 311.483,376.945 310.843,377.123 310.953 C 377.301 311.062,377.489 310.438,377.540 309.564 C 377.670 307.356,376.980 306.800,374.109 306.800 C 372.817 306.800,371.589 306.634,371.380 306.431 C 370.974 306.037,367.625 305.701,360.700 305.361 C 358.335 305.245,356.400 304.990,356.400 304.794 C 356.400 304.276,326.925 304.274,326.605 304.791 " stroke="none" fill="#fbbcab" fill-rule="evenodd"></path></g></svg>